<svg viewBox="0 0 40 40" xmlns="http://www.w3.org/2000/svg">
  <defs>
    <clipPath id="Arc_svg__a">
      <path d="M0 32h32V0H0v32z" />
    </clipPath>
  </defs>
  <g clipPath="url(#Arc_svg__a)" transform="matrix(1.25 0 0 -1.25 0 40)">
    <path d="M16.099 22.93c-5.178.034-10.341-2.102-14.131-5.857l-.006-.007c-.872-.87-.872-2.209.025-3.094.887-.888 2.22-.918 3.099-.043 2.972 2.916 6.893 4.551 11.032 4.57 4.03.025 8.023-1.648 10.996-4.564.88-.86 2.223-.845 3.115.037.43.44.68 1.012.68 1.592 0 .564-.237 1.074-.66 1.502A20.218 20.218 0 0116.1 22.93" fill="#444443" />
  </g>
</svg>
