<svg viewBox="0 0 40 40" xmlns="http://www.w3.org/2000/svg">
  <defs>
    <clipPath id="ArcDirectionCW_svg__a">
      <path d="M0 32h32V0H0v32z" />
    </clipPath>
  </defs>
  <g clipPath="url(#ArcDirectionCW_svg__a)" transform="matrix(1.25 0 0 -1.25 0 40)">
    <path d="M16.638 3.28l.005 2.831c.746.02 1.489.146 2.222.307a11.53 11.53 0 012.745 1.064 12.094 12.094 0 012.675 1.97c4.624 4.532 4.795 11.873.267 16.491-4.527 4.617-11.972 4.694-16.596.161-3.246-3.182-4.482-8.112-2.966-12.408a2.335 2.335 0 012.997-1.42 2.33 2.33 0 011.436 2.974c-.907 2.581-.121 5.59 1.825 7.497 2.77 2.72 7.24 2.674 9.952-.092 2.717-2.772 2.574-7.138-.2-9.855a7 7 0 00-4.274-1.977l.025 2.762c.01.635-.783.973-1.238.53l-2.68-2.62-2.511-2.462a.746.746 0 01-.214-.466.736.736 0 01.194-.569l.08-.083.678-.693 4.323-4.44c.442-.453 1.242-.136 1.255.498" fill="#444443" />
  </g>
</svg>
