<svg viewBox="0 0 40 40" xmlns="http://www.w3.org/2000/svg">
  <defs>
    <clipPath id="ArcDirectionCCW_svg__a">
      <path d="M0 32h32V0H0v32z" />
    </clipPath>
  </defs>
  <g clipPath="url(#ArcDirectionCCW_svg__a)" transform="matrix(1.25 0 0 -1.25 0 40)">
    <path d="M15.562 3.28l-.005 2.831c-.747.02-1.49.146-2.223.307a11.53 11.53 0 00-2.744 1.064 12.094 12.094 0 00-2.675 1.97C3.29 13.983 3.12 21.324 7.648 25.942c4.527 4.617 11.972 4.694 16.597.161 3.245-3.182 4.48-8.112 2.965-12.408a2.335 2.335 0 00-2.998-1.42 2.33 2.33 0 00-1.435 2.974c.906 2.581.121 5.59-1.826 7.497-2.77 2.72-7.24 2.674-9.952-.092-2.717-2.772-2.574-7.138.2-9.855a7 7 0 014.274-1.977l-.025 2.762c-.01.635.783.973 1.238.53l2.68-2.62 2.51-2.462a.742.742 0 00.215-.466.736.736 0 00-.194-.569l-.08-.083-.679-.693-4.322-4.44c-.442-.453-1.242-.136-1.255.498" fill="#444443" />
  </g>
</svg>
