<svg viewBox="0 0 40 40" xmlns="http://www.w3.org/2000/svg">
  <defs>
    <clipPath id="AttrOverwritePart_svg__a">
      <path d="M0 32h32V0H0v32z" />
    </clipPath>
  </defs>
  <g clipPath="url(#AttrOverwritePart_svg__a)" transform="matrix(1.25 0 0 -1.25 0 40)">
    <path d="M32 16c0-8.836-7.163-16-16-16C7.164 0 0 7.164 0 16s7.164 16 16 16c8.837 0 16-7.163 16-16" fill="#ffcd00" />
    <path d="M14.339 18.424h-2.667c-.9 0-1.73.416-1.73 1.66 0 1.249.83 1.663 1.73 1.663h2.667v2.528c0 1.108.414 1.732 1.66 1.732 1.248 0 1.664-.624 1.664-1.732v-2.528h2.665c.9 0 1.73-.414 1.73-1.662 0-1.245-.83-1.661-1.73-1.661h-2.665v-4.846h2.665c.9 0 1.73-.416 1.73-1.662 0-1.248-.83-1.662-1.73-1.662h-2.665V7.727c0-1.108-.416-1.733-1.664-1.733-1.246 0-1.66.625-1.66 1.733v2.527h-2.667c-.9 0-1.73.414-1.73 1.662 0 1.246.83 1.662 1.73 1.662h2.667v4.846z" fill="#444443" />
  </g>
</svg>
