<svg viewBox="0 0 40 40" xmlns="http://www.w3.org/2000/svg">
  <defs>
    <clipPath id="Attribute_svg__a">
      <path d="M0 32h32V0H0v32z" />
    </clipPath>
  </defs>
  <g clipPath="url(#Attribute_svg__a)" transform="matrix(1.25 0 0 -1.25 0 40)">
    <path d="M1.06 10.435C.472 10.435 0 9.888 0 9.202c0-.691.472-1.248 1.06-1.248h8.792c.585 0 1.068.557 1.068 1.248 0 .686-.483 1.233-1.068 1.233M1.046 23.843C.466 23.843 0 23.296 0 22.61c0-.69.466-1.248 1.046-1.248h9.073c.578 0 .036.626.036 1.316 0 .687.542 1.165-.036 1.165M24.545 17.334c-.588 0-1.06-.547-1.06-1.233 0-.691.472-1.25 1.06-1.25h6.347c.586 0 1.068.558 1.068 1.25 0 .686-.482 1.233-1.068 1.233" fill="#444443" />
    <path d="m10.12 31.014v-30s13.895 1.533 13.895 14.34c0 14.22-11.23 15.66-13.896 15.66z" fill="none" stroke="#444443" strokeWidth="2" />
    <path d="M32 7.947H11.109v15.895H32V7.947z" fill="#b4b3b3" />
    <path d="M18 18.228h-.032l-1.223-4.25h2.463L18 18.228zm-.816 2.917c.127.423.297.8.799.8.518 0 .707-.392.817-.8l3.027-10.618c.109-.377-.314-.785-.754-.785-.485 0-.736.408-.846.785l-.581 1.883h-3.34l-.597-1.883c-.109-.377-.36-.785-.846-.785-.44 0-.863.408-.753.785l3.074 10.618zM22.852 20.376v-.564c0-.502-.22-.785-.785-.785-.564 0-.782.283-.782.785v2.133h7.748v-2.133c0-.502-.22-.785-.785-.785-.565 0-.785.283-.785.785v.564h-1.52v-9.849c0-.502-.22-.785-.785-.785-.566 0-.785.283-.785.785v9.849h-1.521z" fill="#444443" />
  </g>
</svg>
