<svg viewBox="0 0 40 40" xmlns="http://www.w3.org/2000/svg">
  <defs>
    <clipPath id="Auto_svg__a" />
    <clipPath id="Auto_svg__b" />
    <clipPath id="Auto_svg__c" />
  </defs>
  <path d="M4.407 5.707h17.038H4.407z" fill="#8a8a89" />
  <path d="M21.509 17.422L21.5 6.315l.008 11.107z" fill="#2b74b9" />
  <path d="m21.602 17.773 12.46 16.017" fill="#8a8a89" />
  <g clipPath="url(#Auto_svg__a)" transform="matrix(1.25 0 0 -1.25 0 40)">
    <path d="m3.525 27.435h13.631" fill="none" stroke="#2b74b9" strokeLinecap="round" strokeWidth="4.5" />
  </g>
  <g clipPath="url(#Auto_svg__b)" transform="matrix(1.25 0 0 -1.25 0 40)">
    <path d="M17.201 26.948l.006-8.886" fill="none" stroke="#2b74b9" strokeLinecap="round" strokeWidth="4.5" />
  </g>
  <g clipPath="url(#Auto_svg__c)" transform="matrix(1.25 0 0 -1.25 0 40)">
    <path d="m17.281 17.781 9.97-12.813" fill="none" stroke="#2b74b9" strokeLinecap="round" strokeWidth="4.5" />
    <path d="M26.547 9.238a4.66 4.66 0 005.386-3.802c.432-2.512-1.278-4.93-3.8-5.368a4.646 4.646 0 00-5.363 3.783 4.639 4.639 0 003.777 5.387M3.848 31.93a4.66 4.66 0 005.386-3.801c.432-2.512-1.278-4.93-3.8-5.368a4.646 4.646 0 00-5.363 3.783 4.639 4.639 0 003.777 5.387" fill="#42ab3d" />
    <path d="M5.014 10.89h-.04l-1.57-5.454h3.16l-1.55 5.454zm-1.047 3.743c.161.545.383 1.028 1.027 1.028.664 0 .906-.503 1.047-1.028L9.925 1.007C10.066.523 9.523 0 8.96 0c-.624 0-.945.523-1.087 1.007l-.745 2.415H2.84l-.765-2.415C1.935.523 1.612 0 .99 0 .425 0-.119.523.022 1.007l3.945 13.626z" fill="#444443" />
  </g>
</svg>
