<svg viewBox="0 0 40 40" xmlns="http://www.w3.org/2000/svg">
  <defs>
    <clipPath id="Brd_svg__a">
      <path d="M0 32h32V0H0v32z" />
    </clipPath>
  </defs>
  <g clipPath="url(#Brd_svg__a)" transform="matrix(1.25 0 0 -1.25 0 40)">
    <path d="M26.463 27c0 .817-.308 1.555-.847 2.125a2.785 2.785 0 01-2.038.873H10.212c-.774 0-1.494-.3-2.03-.873A3.028 3.028 0 017.34 27V4.996c0-1.648 1.29-2.994 2.873-2.994H20.727v6.143h5.736V27zm1.904-19.07a2.182 2.182 0 00-.56-1.34L22.075.586A1.9 1.9 0 0020.71 0H10.212C7.557 0 5.43 2.241 5.43 4.996V27c0 1.388.54 2.642 1.403 3.547.87.892 2.053 1.453 3.379 1.453h13.366a4.688 4.688 0 003.382-1.453A5.137 5.137 0 0028.367 27V7.93z" fill="#444443" />
    <path d="M26.463 12.164H3.633v14h22.83v-14z" fill="#b4b3b3" />
    <path d="M6.99 15.835h2.087c.835 0 1.322.37 1.322 1.252 0 .974-.266 1.52-1.322 1.52H6.99v-2.773zm0 3.931h2.087c.835 0 1.322.372 1.322 1.253 0 .974-.266 1.519-1.322 1.519H6.99v-2.772zm-1.16 3.932h3.247c1.705 0 2.482-1.044 2.482-2.68 0-.671-.15-1.286-.765-1.831.66-.626.765-1.241.765-2.1 0-1.52-1.009-2.411-2.482-2.411H5.83v9.022zM13.95 20.729h2.574c.325 0 .836.023.836.487v.8c0 .464-.476.522-.824.522H13.95v-1.809zm0-5.474c0-.37-.163-.579-.58-.579-.418 0-.58.209-.58.579v8.443h3.897c.917 0 1.833-.65 1.833-1.682v-.8c0-1.091-.904-1.647-1.833-1.647H15.62l2.609-3.735c.127-.173.29-.393.29-.614 0-.324-.267-.544-.591-.544-.232 0-.383.138-.51.324l-3.201 4.569h-.267v-4.314zM21.654 15.835h.221c.488 0 .603.058.812.486l1.02 2.065c.13.267.22.465.22.755 0 .394-.127.614-.289.95l-.963 1.96c-.244.499-.347.487-.88.487h-.14v-6.703zm-1.158 6.702h-.43c-.383 0-.707.14-.707.58 0 .418.313.58.672.58h1.937c.905 0 1.356-.37 1.75-1.16l1.022-2.04c.23-.476.348-.812.348-1.346 0-.463-.127-.858-.336-1.275l-1.057-2.11c-.404-.825-.928-1.09-1.832-1.09H19.94c-.303 0-.58.161-.58.58 0 .416.277.578.58.578h.557v6.704z" fill="#42ab3d" />
  </g>
</svg>
