<svg viewBox="0 0 40 40" xmlns="http://www.w3.org/2000/svg">
  <defs>
    <clipPath id="Cam_svg__a">
      <path d="M0 32h32V0H0v32z" />
    </clipPath>
  </defs>
  <g clipPath="url(#Cam_svg__a)" transform="matrix(1.25 0 0 -1.25 0 40)">
    <path d="M19.021 12.492c-3.392 0-6.162 2.771-6.162 6.171 0 3.412 2.77 6.155 6.163 6.155a6.15 6.15 0 006.159-6.155c0-3.4-2.76-6.17-6.16-6.17m8.683 15.87H10.332c-2.337 0-4.23-1.907-4.23-4.25V13.207a4.236 4.236 0 014.24-4.237h17.362a4.237 4.237 0 014.237 4.237v10.904a4.246 4.246 0 01-4.237 4.251" fill="#444443" />
    <path d="M8.293 25.588H6.998c-2.338 0-4.23-1.907-4.23-4.251V10.43a4.236 4.236 0 014.239-4.236H24.37c2.342 0 4.237 1.9 4.237 4.236v10.906a4.244 4.244 0 01-4.237 4.25h-1.296" fill="#fff" />
    <path d="M21.437 5H5.812v15.438h15.625V5z" fill="#3fabe2" />
    <path d="M4.023 17.904a1.552 1.552 0 000 3.104 1.552 1.552 0 000-3.104M12.92 7.521c-3.392 0-6.162 2.772-6.162 6.173 0 3.411 2.77 6.154 6.162 6.154a6.149 6.149 0 006.16-6.154c0-3.4-2.759-6.173-6.16-6.173m8.683 15.872H4.23c-2.337 0-4.23-1.906-4.23-4.25V8.236a4.235 4.235 0 014.24-4.236h17.362a4.236 4.236 0 014.237 4.236v10.905a4.245 4.245 0 01-4.237 4.251" fill="#444443" />
    <path d="M19.212 25.588l-.19.066.19-.066z" fill="#686767" />
  </g>
</svg>
