<svg viewBox="0 0 40 40" xmlns="http://www.w3.org/2000/svg">
  <defs>
    <clipPath id="Change_svg__a">
      <path d="M0 32h32V0H0v32z" />
    </clipPath>
  </defs>
  <g clipPath="url(#Change_svg__a)" transform="matrix(1.25 0 0 -1.25 0 40)">
    <path d="M32.006 20.146s-3.185-9.735-9.73-9.735c-1.812 0-3.53.422-5.065 1.142L6.643 1.002C5.22-.423 2.788-.323 1.238 1.242-.327 2.777-.424 5.214.998 6.646L11.563 17.21a11.92 11.92 0 00-1.131 5.063c0 6.548 8.87 9.727 9.09 9.727 0 0 1.989 0 3.8-.432l-5.05-5.051c-2.11-2.101-1.961-5.638.318-7.917 2.282-2.272 5.826-2.43 7.93-.322l5.058 5.052c.284-1.025.428-2.081.428-3.184" fill="#444443" />
    <path d="M3.317 5.33a1.412 1.412 0 01-.02-2.002 1.42 1.42 0 012.01-.018l1.944 1.88c.556.548.57 1.458.02 2.017a1.422 1.422 0 01-2.01.002" fill="#fff" />
  </g>
</svg>
