<svg viewBox="0 0 40 40" xmlns="http://www.w3.org/2000/svg">
  <defs>
    <clipPath id="Circle_svg__a">
      <path d="M0 32h32V0H0v32z" />
    </clipPath>
  </defs>
  <g clipPath="url(#Circle_svg__a)" transform="matrix(1.25 0 0 -1.25 0 40)">
    <path d="M26.568 15.994c0 .027-.009.083-.009.12-.013-.735-.052-1.468-.207-2.184-.983-4.224-4.584-7.567-8.863-8.146-4.443-.612-8.99 1.953-10.846 6.031-1.86 4.065-.769 9.13 2.561 12.105 3.378 3.026 8.65 3.47 12.487 1.043 3.002-1.896 4.855-5.306 4.868-8.849.01.213.01.415.01.641 0-.057.012-.092.012-.149 0 1.766 0 .764 0 0 0-.197 0-.406-.013-.612m-2.51 11.563c-3.752 2.592-8.735 3.154-12.978 1.497-.923-.354-2.595-1.347-3.452-1.962-.376-.269-.723-.606-1.059-.91a14.211 14.211 0 01-3.145-4.479 14.002 14.002 0 01-1.008-7.683 14.295 14.295 0 012.96-6.703c.022-.024.035-.055.057-.075v.016a48.93 48.93 0 011.21-1.27c.45-.429.94-.823 1.466-1.189a13.72 13.72 0 013.302-1.746v-.02c2.47-.88 5.196-1.077 7.771-.49 2.365.556 4.61 1.713 6.402 3.36 2.781 2.596 4.434 6.316 4.461 10.118.02 4.517-2.272 8.961-5.988 11.536" fill="#444443" />
  </g>
</svg>
