<svg viewBox="0 0 40 40" xmlns="http://www.w3.org/2000/svg">
  <defs>
    <clipPath id="ClearFind_svg__a">
      <path d="M0 32h32V0H0v32z" />
    </clipPath>
  </defs>
  <path d="M0 4.12v31.33h29.531L40 19.98 29.609 4.12H0z" fill="#444443" />
  <g clipPath="url(#ClearFind_svg__a)" transform="matrix(1.25 0 0 -1.25 0 40)">
    <path d="M16.791 23.303l-2.916-2.908-2.95 2.908c-1.14 1.15-3.013 1.15-4.184 0a2.973 2.973 0 010-4.195l2.908-2.926-2.908-2.927a2.996 2.996 0 010-4.214c1.171-1.148 3.044-1.148 4.184 0l2.95 2.926 2.916-2.926a3.013 3.013 0 014.218 0 2.996 2.996 0 010 4.214l-2.936 2.927 2.936 2.926a2.973 2.973 0 010 4.195 3.01 3.01 0 01-4.218 0" fill="#fff" />
    <path d="M16.791 23.303l-2.916-2.908-2.95 2.908c-1.14 1.15-3.013 1.15-4.184 0a2.973 2.973 0 010-4.195l2.908-2.926-2.908-2.927a2.996 2.996 0 010-4.214c1.171-1.148 3.044-1.148 4.184 0l2.95 2.926 2.916-2.926a3.013 3.013 0 014.218 0 2.996 2.996 0 010 4.214l-2.936 2.927 2.936 2.926a2.973 2.973 0 010 4.195 3.01 3.01 0 01-4.218 0z" fill="none" stroke="#444443" />
  </g>
</svg>
