<svg viewBox="0 0 40 40" xmlns="http://www.w3.org/2000/svg">
  <defs>
    <clipPath id="Collapse_svg__a">
      <path d="M0 32h32V0H0v32z" />
    </clipPath>
  </defs>
  <path d="M0 0v39.952h40V-.001H0z" fill="#b4b3b3" />
  <g clipPath="url(#Collapse_svg__a)" transform="matrix(1.25 0 0 -1.25 0 40)">
    <path d="M23.104 19.02l-4.118.005-5.967.01-4.125-.014a2.995 2.995 0 01-2.98-2.98c.016-1.64 1.34-2.964 2.959-2.958l4.154-.018 5.948.012 4.146-.006a2.97 2.97 0 012.965 2.967 3.009 3.009 0 01-2.982 2.982" fill="#444443" />
    <path d="M23.104 19.02l-4.118.005-5.967.01-4.125-.014a2.995 2.995 0 01-2.98-2.98c.016-1.64 1.34-2.964 2.959-2.958l4.154-.018 5.948.012 4.146-.006a2.97 2.97 0 012.965 2.967 3.009 3.009 0 01-2.982 2.982z" fill="none" stroke="#b4b3b3" strokeWidth="2" />
  </g>
</svg>
