<svg viewBox="0 0 40 40" xmlns="http://www.w3.org/2000/svg">
  <defs>
    <clipPath id="Connect_svg__a">
      <path d="M0 32h32V0H0v32z" />
    </clipPath>
  </defs>
  <g clipPath="url(#Connect_svg__a)" fill="#444443" transform="matrix(1.25 0 0 -1.25 0 40)">
    <path d="M23.102 20.423a4.273 4.273 0 01-4.288-4.288 4.285 4.285 0 014.288-4.292c2.368 0 4.271 1.936 4.271 4.292a4.273 4.273 0 01-4.27 4.288m0-13.271c-5.012 0-9.03 4.056-9.03 8.983 0 4.912 4.018 8.963 9.03 8.963 4.907 0 8.896-4.051 8.896-8.963 0-4.927-3.989-8.983-8.897-8.983" />
    <path d="M8.929 20.123a4.273 4.273 0 01-4.286-4.291c0-2.367 1.883-4.237 4.286-4.237 2.354 0 4.273 1.87 4.273 4.237 0 2.358-1.92 4.29-4.273 4.29m0-13.22a8.913 8.913 0 00-8.93 8.93c0 4.929 3.97 8.984 8.93 8.984 4.995 0 8.897-4.055 8.897-8.984 0-4.928-3.902-8.93-8.897-8.93" />
  </g>
</svg>
