<svg viewBox="0 0 40 40" xmlns="http://www.w3.org/2000/svg">
  <defs>
    <clipPath id="ConnectRouteAny_svg__a">
      <path d="M0 32h32V0H0v32z" />
    </clipPath>
  </defs>
  <path d="M7.89 0v14.61V0z" fill="#2b74b9" />
  <g clipPath="url(#ConnectRouteAny_svg__a)" transform="matrix(1.25 0 0 -1.25 0 40)">
    <path d="M6.313 20.313V32" fill="none" stroke="#2b74b9" strokeWidth="3.5" />
    <path d="M4.456 13.637a2.927 2.927 0 014.086.7c.946 1.342.65 3.185-.685 4.127-1.334.94-3.168.598-4.114-.745a2.924 2.924 0 01.713-4.082m5.22 7.406a6.13 6.13 0 001.471-8.543c-1.933-2.74-5.77-3.396-8.52-1.46a6.11 6.11 0 00-1.472 8.502c1.963 2.785 5.763 3.447 8.52 1.5M24.143 13.637a2.927 2.927 0 014.086.7c.947 1.343.65 3.185-.684 4.127-1.334.94-3.168.598-4.115-.745a2.926 2.926 0 01.713-4.082m5.22 7.406a6.13 6.13 0 001.47-8.543c-1.93-2.74-5.768-3.396-8.52-1.46a6.112 6.112 0 00-1.471 8.502c1.963 2.785 5.764 3.447 8.522 1.5" fill="#42ab3d" />
  </g>
</svg>
