<svg viewBox="0 0 40 40" xmlns="http://www.w3.org/2000/svg">
  <defs>
    <clipPath id="Copy_svg__a">
      <path d="M0 32h32V0H0v32z" />
    </clipPath>
  </defs>
  <g clipPath="url(#Copy_svg__a)" transform="matrix(1.25 0 0 -1.25 0 40)">
    <path d="M21.906 4.21c0-.688-.27-1.309-.746-1.789a2.512 2.512 0 00-1.795-.734H7.582c-.683 0-1.316.252-1.788.734a2.49 2.49 0 00-.743 1.789v18.531a2.53 2.53 0 002.531 2.521h9.267v-5.173h5.057V4.21zm1.678 16.061a1.778 1.778 0 01-.492 1.126l-5.053 5.057a1.71 1.71 0 01-1.204.493H7.582a4.205 4.205 0 01-4.215-4.206V4.21c0-1.168.477-2.223 1.237-2.985A4.233 4.233 0 017.582 0h11.783a4.213 4.213 0 014.219 4.21v16.061z" fill="#444443" />
    <path d="M28.625 25.32a1.736 1.736 0 01-.494 1.134l-5.049 5.05c-.318.315-.74.496-1.189.496h-9.265A4.2 4.2 0 018.5 28.622h1.743a2.534 2.534 0 002.385 1.69h9.265l.013-.012v-5.168h5.026V9.26c0-.675-.256-1.319-.729-1.782a2.558 2.558 0 00-.943-.599V5.14c.83.164 1.566.572 2.125 1.147a4.141 4.141 0 011.24 2.974v15.872h.008c0 .068 0 .13-.008.187" fill="#444443" />
    <path d="M15.838 5.021H8.219v7.617h7.619V5.021z" fill="#737372" />
  </g>
</svg>
