<svg viewBox="0 0 40 40" xmlns="http://www.w3.org/2000/svg">
  <defs>
    <clipPath id="Cut_svg__a">
      <path d="M0 32h32V0H0v32z" />
    </clipPath>
  </defs>
  <g clipPath="url(#Cut_svg__a)" transform="matrix(1.25 0 0 -1.25 0 40)">
    <path d="M25.267 9.948c0-1.108.896-2.005 2.008-2.005a2.01 2.01 0 010 4.018 2.008 2.008 0 01-2.008-2.013m2.008 4.696c2.582 0 4.68-2.1 4.68-4.696a4.683 4.683 0 10-9.367 0 4.688 4.688 0 004.687 4.696M25.267 23.224a2.01 2.01 0 012.008-2.012 2.01 2.01 0 010 4.02c-1.112 0-2.008-.9-2.008-2.008m2.008 4.677a4.68 4.68 0 004.68-4.677 4.688 4.688 0 00-4.68-4.696 4.687 4.687 0 00-4.687 4.696 4.68 4.68 0 004.687 4.677" fill="#444443" />
    <path d="m1.628 22.125 21.56-5.598-21.58-6.573" fill="none" stroke="#444443" strokeLinecap="round" strokeWidth="3.2" />
  </g>
</svg>
