<svg viewBox="0 0 40 40" xmlns="http://www.w3.org/2000/svg">
  <defs>
    <clipPath id="Delete_svg__a">
      <path d="M0 32h32V0H0v32z" />
    </clipPath>
  </defs>
  <g clipPath="url(#Delete_svg__a)" transform="matrix(1.25 0 0 -1.25 0 40)">
    <path d="M23.814 6.276c0-.748-.508-1.36-1.125-1.36-.609 0-1.115.612-1.115 1.36v14.572c0 .736.506 1.345 1.115 1.345.617 0 1.125-.609 1.125-1.345V6.276zm-6.68 0c0-.748-.518-1.36-1.128-1.36-.615 0-1.125.612-1.125 1.36v14.572c0 .736.51 1.345 1.125 1.345.61 0 1.128-.609 1.128-1.345V6.276zm-6.703 0c0-.748-.497-1.36-1.131-1.36-.615 0-1.104.612-1.104 1.36v14.502c0 .736.49 1.346 1.104 1.346.633 0 1.131-.61 1.131-1.346V6.276zM5.33 24.92V4.853c0-2.665 1.795-4.816 4.01-4.816h13.335c2.207 0 3.998 2.151 3.998 4.816V24.92H5.329zM25.096 30.475h-6.062a1.52 1.52 0 01-1.514 1.522h-3.035a1.514 1.514 0 01-1.517-1.522H6.895a1.513 1.513 0 110-3.025h18.2c.839 0 1.526.678 1.526 1.51 0 .845-.687 1.515-1.525 1.515" fill="#444443" />
  </g>
</svg>
