<svg viewBox="0 0 40 40" xmlns="http://www.w3.org/2000/svg">
  <defs>
    <clipPath id="DimensionRadius_svg__a">
      <path d="M0 32h32V0H0v32z" />
    </clipPath>
  </defs>
  <g clipPath="url(#DimensionRadius_svg__a)" transform="matrix(1.25 0 0 -1.25 0 40)">
    <path d="M22.825 20.26l-.66 4.179a.404.404 0 01-.483.352l-4.182-.656c-.367-.05-.487-.54-.178-.766l1.873-1.342L12.63 13.1l1.056-.776 6.541 8.907 1.932-1.383c.295-.215.725.047.666.412" fill="#444443" />
    <path d="M30.5 16c0-8.008-6.492-14.5-14.5-14.5S1.5 7.992 1.5 16 7.992 30.5 16 30.5 30.5 24.008 30.5 16z" fill="none" stroke="#8a8a89" strokeLinecap="round" strokeWidth="3" />
  </g>
</svg>
