<svg viewBox="0 0 40 40" xmlns="http://www.w3.org/2000/svg">
  <defs>
    <clipPath id="DimensionDiameter_svg__a">
      <path d="M0 32h32V0H0v32z" />
    </clipPath>
  </defs>
  <g clipPath="url(#DimensionDiameter_svg__a)" transform="matrix(1.25 0 0 -1.25 0 40)">
    <path d="M8.502 19.389l-2.975-3.004a.405.405 0 01.003-.602l3.005-2.978c.261-.267.725-.071.723.31l-.004 1.276-.019 3.417-.006 1.29c-.004.366-.469.555-.727.29" fill="#444443" />
    <path d="M23.5 12.61l2.975 3.007a.407.407 0 01-.001.598l-3.008 2.981c-.257.265-.724.071-.722-.31l.028-2.178-13.639-.013-.029-1.425 13.638.007.031-2.375c.002-.365.468-.556.727-.292" fill="#444443" />
    <path d="M30.5 16c0-8.008-6.492-14.5-14.5-14.5S1.5 7.992 1.5 16 7.992 30.5 16 30.5 30.5 24.008 30.5 16z" fill="none" stroke="#8a8a89" strokeLinecap="round" strokeWidth="3" />
  </g>
</svg>
