<svg viewBox="0 0 40 40" xmlns="http://www.w3.org/2000/svg">
  <defs>
    <clipPath id="DimensionParallel_svg__a">
      <path d="M0 32h32V0H0v32z" />
    </clipPath>
  </defs>
  <g clipPath="url(#DimensionParallel_svg__a)" transform="matrix(1.25 0 0 -1.25 0 40)">
    <path d="M13.148 23.947l-4.228-.021a.404.404 0 01-.423-.428l.019-4.231c-.004-.372.462-.562.73-.291l.9.906 2.403 2.428.908.918c.255.26.06.723-.31.719" fill="#444443" />
    <path d="M18.96 8.549l4.229.023a.406.406 0 01.422.424l-.018 4.235c.005.367-.462.56-.732.289l-1.519-1.56-9.653 9.636-1.028-.987 9.649-9.638-1.658-1.701c-.256-.26-.061-.725.308-.721" fill="#444443" />
    <path d="M8.128 28.711L3.59 24.173M28.575 8.266c-3.432-3.432-2.815-2.816-4.538-4.54" fill="none" stroke="#8a8a89" strokeLinecap="round" strokeWidth="3" />
  </g>
</svg>
