<svg viewBox="0 0 40 40" xmlns="http://www.w3.org/2000/svg">
  <defs>
    <clipPath id="DimensionLeader_svg__a">
      <path d="M0 32h32V0H0v32z" />
    </clipPath>
  </defs>
  <g clipPath="url(#DimensionLeader_svg__a)" transform="matrix(1.25 0 0 -1.25 0 40)">
    <path d="M8.598 16.898l.76-4.163a.409.409 0 01.49-.342l4.167.758c.364.06.474.553.158.769l-1.8 1.225 7.805 11.186-1.151.84-7.81-11.181-1.964 1.334c-.301.208-.723-.064-.655-.427" fill="#444443" />
    <path d="m11.307 14.963 8.703 12.39h9.726" fill="none" stroke="#444443" strokeLinecap="round" strokeWidth="1.5" />
    <path d="M5.357 11.466a4.665 4.665 0 005.387-3.803c.433-2.513-1.278-4.931-3.799-5.367a4.644 4.644 0 00-5.363 3.78 4.64 4.64 0 003.775 5.39" fill="#8a8a89" />
  </g>
</svg>
