<svg viewBox="0 0 40 40" xmlns="http://www.w3.org/2000/svg">
  <defs>
    <clipPath id="Drc_svg__a">
      <path d="M0 32h32V0H0v32z" />
    </clipPath>
  </defs>
  <path d="M.054 30.04h32.25V-.001H.054V30.04z" fill="#b4b3b3" />
  <g clipPath="url(#Drc_svg__a)" transform="matrix(1.25 0 0 -1.25 0 40)">
    <path d="M32.437 9.121a9.618 9.618 0 00-9.618-9.618 9.617 9.617 0 00-9.62 9.618 9.618 9.618 0 009.62 9.62c5.312 0 9.618-4.307 9.618-9.62" fill="#79b935" />
    <path d="M32.437 9.121a9.618 9.618 0 00-9.618-9.618 9.617 9.617 0 00-9.62 9.618 9.618 9.618 0 009.62 9.62c5.312 0 9.618-4.307 9.618-9.62z" fill="none" stroke="#fff" />
    <path d="M27.05 12.114a1.143 1.143 0 01-1.616 0l-3.612-3.562-1.622 1.625a1.144 1.144 0 01-1.617 0 1.156 1.156 0 010-1.625l2.428-2.427a1.155 1.155 0 011.623 0l4.416 4.372a1.135 1.135 0 010 1.617" fill="#fff" />
    <path d="M6.896 25.52a2.164 2.164 0 01.52-3.022c.992-.701 2.354-.481 3.051.506.695.987.443 2.343-.551 3.043a2.164 2.164 0 01-3.02-.527m5.479-3.86a4.533 4.533 0 00-6.319-1.09C4.03 22 3.544 24.84 4.976 26.874a4.52 4.52 0 006.289 1.088c2.059-1.451 2.549-4.263 1.11-6.301" fill="#444443" />
    <path d="M12.135 24.628h13.718M0 24.628h4.551" fill="none" stroke="#444443" strokeWidth="3" />
  </g>
</svg>
