<svg viewBox="0 0 40 40" xmlns="http://www.w3.org/2000/svg">
  <defs>
    <clipPath id="Dru_svg__a">
      <path d="M0 32h32V0H0v32z" />
    </clipPath>
  </defs>
  <path d="M.016 39.968H39.96V0H.016v39.968z" fill="#b4b3b3" />
  <path d="M20.274 10.363H40 20.274z" fill="#444443" />
  <g clipPath="url(#Dru_svg__a)" transform="matrix(1.25 0 0 -1.25 0 40)">
    <path d="m16.219 23.71h15.78m-31.951 0h7.155m19.282-13.62h5.48m-31.943 0h18.967" fill="none" stroke="#444443" strokeWidth="2" />
    <path d="M9.352 24.986a2.897 2.897 0 01.692-4.04c1.323-.935 3.14-.64 4.07.68.925 1.316.59 3.13-.736 4.065a2.884 2.884 0 01-4.026-.705m6.43-4.535a4.972 4.972 0 00-6.93-1.193c-2.224 1.568-2.755 4.68-1.185 6.912a4.959 4.959 0 006.898 1.193c2.258-1.593 2.795-4.676 1.217-6.912M20.317 11.368a2.897 2.897 0 01.693-4.04c1.326-.933 3.14-.643 4.07.68.924 1.316.591 3.128-.738 4.065a2.883 2.883 0 01-4.025-.705m6.431-4.536A4.972 4.972 0 0019.82 5.64c-2.224 1.57-2.756 4.681-1.185 6.913a4.958 4.958 0 006.897 1.193c2.255-1.592 2.795-4.677 1.217-6.913" fill="#444443" />
  </g>
</svg>
