<svg viewBox="0 0 40 40" xmlns="http://www.w3.org/2000/svg">
  <defs>
    <clipPath id="Edit_svg__a">
      <path d="M0 32h32V0H0v32z" />
    </clipPath>
  </defs>
  <path d="M.054 30.04h32.25V-.001H.054V30.04z" fill="#b4b3b3" />
  <g clipPath="url(#Edit_svg__a)" transform="matrix(1.25 0 0 -1.25 0 40)">
    <path d="M6.896 25.52a2.164 2.164 0 01.52-3.022c.992-.701 2.354-.481 3.051.506.695.987.443 2.343-.551 3.043a2.164 2.164 0 01-3.02-.527m5.479-3.86a4.533 4.533 0 00-6.319-1.09C4.03 22 3.544 24.84 4.976 26.874a4.52 4.52 0 006.289 1.088c2.059-1.451 2.549-4.263 1.11-6.301" fill="#444443" />
    <path d="M12.135 24.628h13.718M0 24.628h4.551" fill="none" stroke="#444443" strokeWidth="3" />
    <path d="M21.556 6.499v-.258c0-1.006 1.217-1.588 2.003-.928l7.324 6.102c.58.479.58 2.387 0 2.873l-7.324 6.103c-.785.651-2.892.077-2.892-.941v-4.654H11V6.499h10.555z" fill="#fff" />
    <path d="M22.549 7.936V4.383c0-.974 1.178-1.538 1.938-.898l7.092 5.908a1.186 1.186 0 010 1.812l-7.092 5.91c-.76.633-1.938.075-1.938-.911v-3.54h-9.59V7.937h9.59z" fill="#444443" />
  </g>
</svg>
