<svg viewBox="0 0 180 180" xmlns="http://www.w3.org/2000/svg">
  <g fill="#d10033">
    <path d="m90.323 163.86c40.627 0 73.562-32.995 73.562-73.695 0-40.701-32.935-73.696-73.562-73.696s-73.562 32.995-73.562 73.696c0 40.7 32.935 73.695 73.562 73.695zm0 15.792c-49.333 0-89.325-40.065-89.325-89.487 0-49.423 39.992-89.487 89.325-89.487s89.326 40.064 89.326 89.487c0 49.422-39.993 89.487-89.326 89.487z" />
    <path d="m159.03 44.834c-9.76-12.03-39.628-34.719-39.628-34.719s-7.155-12.862-7.155 7.137c0 19.998 13.24 28.322 20.783 39.174 2.884 4.15-7.049 14.358-7.049 14.358s-31.983-9.574-48.757 2.016-13.496 21.17-13.496 21.17-14.68 7.868-16.175 19.459c-1.252 9.755 9.094 21.298 9.094 21.298s-2.608-12.712 5.962-15.333c8.576-2.616 15.657-14.956 37.651 12.717 0 0 0.747 12.34 4.473 19.07 3.727 6.732 3.629 17.73 3.629 17.73l17.619-3.176s22.057-0.92 36.851-29.25c14.795-28.33 11.03-55.034 11.03-55.034s-1.848-20.612-14.832-36.617z" />
  </g>
</svg>
