<svg viewBox="0 0 40 40" xmlns="http://www.w3.org/2000/svg">
  <defs>
    <clipPath id="Erc_svg__a">
      <path d="M0 32h32V0H0v32z" />
    </clipPath>
  </defs>
  <g clipPath="url(#Erc_svg__a)" transform="matrix(1.25 0 0 -1.25 0 40)">
    <path d="M1.06 10.435C.472 10.435 0 9.888 0 9.202c0-.691.472-1.248 1.06-1.248h8.792c.585 0 1.068.557 1.068 1.248 0 .686-.483 1.233-1.068 1.233M1.046 23.843C.466 23.843 0 23.296 0 22.61c0-.69.466-1.248 1.046-1.248h9.073c.578 0 .036.626.036 1.316 0 .687.542 1.165-.036 1.165" fill="#444443" />
    <path d="m10.12 31.014v-30s13.895 1.533 13.895 14.34c0 14.22-11.23 15.66-13.896 15.66z" fill="none" stroke="#444443" strokeWidth="2" />
    <path d="M31.724 23.757a2.543 2.543 0 01-3.604 0l-8.042-7.932-3.613 3.62a2.557 2.557 0 01-3.606 0 2.577 2.577 0 010-3.62l5.412-5.406a2.57 2.57 0 013.614 0l9.839 9.735a2.535 2.535 0 010 3.603" fill="#79b935" />
    <path d="M31.724 23.757a2.543 2.543 0 01-3.604 0l-8.042-7.932-3.613 3.62a2.557 2.557 0 01-3.606 0 2.577 2.577 0 010-3.62l5.412-5.406a2.57 2.57 0 013.614 0l9.839 9.735a2.535 2.535 0 010 3.603z" fill="none" stroke="#fff" />
  </g>
</svg>
