<svg viewBox="0 0 40 40" xmlns="http://www.w3.org/2000/svg">
  <defs>
    <clipPath id="Error_svg__a">
      <path d="M0 32h32V0H0v32z" />
    </clipPath>
  </defs>
  <g clipPath="url(#Error_svg__a)" transform="matrix(1.25 0 0 -1.25 0 40)">
    <path d="M29.49.01c2.27 0 3.192 1.807 2.07 4.019l-13.452 26.32c-1.138 2.215-2.995 2.215-4.122 0L.521 4.029C-.609 1.817.313.01 2.591.01H29.49z" fill="#dd203c" />
    <path d="M16.419 7.28c1.212 0 1.785-.607 1.785-1.817v-.83c0-1.209-.573-1.818-1.785-1.818h-.83c-1.211 0-1.784.61-1.784 1.818v.83c0 1.21.573 1.817 1.785 1.817h.829zm.415 17.578c1.37 0 1.433-.83 1.37-2.362l-.573-10.93c-.066-1.118-.32-2.04-1.627-2.04s-1.561.922-1.626 2.04l-.573 10.93c-.096 1.532.033 2.362 1.403 2.362h1.626z" fill="#fff" />
  </g>
</svg>
