<svg viewBox="0 0 40 40" xmlns="http://www.w3.org/2000/svg">
  <defs>
    <clipPath id="Expand_svg__a">
      <path d="M0 32h32V0H0v32z" />
    </clipPath>
  </defs>
  <path d="M0 0v39.952h40V-.001H0z" fill="#b4b3b3" />
  <g clipPath="url(#Expand_svg__a)" transform="matrix(1.25 0 0 -1.25 0 40)">
    <path d="M23.104 19.02l-4.118.005-.028 4.142c.005 1.62-1.32 2.943-2.96 2.958a2.973 2.973 0 01-2.966-2.966l-.013-4.125-4.125-.014a2.995 2.995 0 01-2.98-2.98c.016-1.64 1.34-2.964 2.959-2.958l4.154-.018-.007-4.13a3.013 3.013 0 012.982-2.983 2.996 2.996 0 012.98 2.98l-.007 4.145 4.146-.006a2.97 2.97 0 012.965 2.967 3.009 3.009 0 01-2.982 2.982" fill="#444443" />
    <path d="M23.104 19.02l-4.118.005-.028 4.142c.005 1.62-1.32 2.943-2.96 2.958a2.973 2.973 0 01-2.966-2.966l-.013-4.125-4.125-.014a2.995 2.995 0 01-2.98-2.98c.016-1.64 1.34-2.964 2.959-2.958l4.154-.018-.007-4.13a3.013 3.013 0 012.982-2.983 2.996 2.996 0 012.98 2.98l-.007 4.145 4.146-.006a2.97 2.97 0 012.965 2.967 3.009 3.009 0 01-2.982 2.982z" fill="none" stroke="#b4b3b3" strokeWidth="2" />
  </g>
</svg>
