<svg viewBox="0 0 40 40" xmlns="http://www.w3.org/2000/svg">
  <defs>
    <clipPath id="FileSave_svg__a">
      <path d="M0 32h32V0H0v32z" />
    </clipPath>
  </defs>
  <path d="M7.51 40h24.989V25.976H7.51V40z" fill="#b4b3b3" />
  <g clipPath="url(#FileSave_svg__a)" transform="matrix(1.25 0 0 -1.25 0 40)">
    <path d="M6.008 27.136h19.99V17.59H6.008v9.546zM6.008 0v11.219h19.99V0C28.838.283 32 2.693 32 5.61v20.78c0 3.086-2.529 5.61-5.62 5.61H5.621C2.53 32 0 29.476 0 26.39V5.61C0 2.693 3.162.283 6.008 0" fill="#444443" />
    <path d="M20.277 7.31a1.85 1.85 0 001.858 1.842c1.02 0 1.843-.83 1.843-1.841V3.296c0-1.014-.824-1.861-1.843-1.861a1.865 1.865 0 00-1.858 1.86v4.016z" fill="#ededed" />
  </g>
</svg>
