<svg viewBox="0 0 40 40" xmlns="http://www.w3.org/2000/svg">
  <defs>
    <clipPath id="FileOpen_svg__a">
      <path d="M0 32h32V0H0v32z" />
    </clipPath>
  </defs>
  <g clipPath="url(#FileOpen_svg__a)" transform="matrix(1.25 0 0 -1.25 0 40)">
    <path d="M6.738 8.145h5.736V2.002H22.99c1.583 0 2.873 1.346 2.873 2.995V27c0 .818-.299 1.555-.844 2.125a2.733 2.733 0 01-2.029.874H9.623c-.766 0-1.493-.3-2.038-.874A3.055 3.055 0 016.738 27V8.145zm-1.904 0V27c0 1.388.545 2.642 1.407 3.547A4.684 4.684 0 009.623 32H22.99c1.326 0 2.51-.56 3.38-1.453A5.133 5.133 0 0027.77 27V4.997C27.771 2.242 25.644 0 22.99 0H12.49a1.9 1.9 0 00-1.363.586L5.393 6.59c-.33.36-.528.836-.559 1.34v.215z" fill="#737372" />
    <path d="M23.238 18.406v-3.67c0-1.005 1.217-1.587 2.003-.927 0 0 7.34 8.15 6.76 8.637l-6.76 5.44c-.786.653-2.003.077-2.003-.941V23.29h-9.904v-4.885h9.904z" fill="#fff" />
    <path d="M22.238 13.56V9.89c0-1.006 1.217-1.588 2.003-.928l7.324 6.102c.58.478.58 1.387 0 1.873l-7.324 6.103c-.786.654-2.003.078-2.003-.94v-3.655h-9.904V13.56h9.904z" fill="#fff" />
    <path d="M22.238 16.572v-3.67c0-1.005 1.217-1.587 2.003-.927l7.324 6.1c.58.48.58 1.388 0 1.874l-7.324 6.105c-.786.652-2.003.076-2.003-.943v-3.654h-9.904v-4.885h9.904z" fill="#444443" />
  </g>
</svg>
