<svg viewBox="0 0 40 40" xmlns="http://www.w3.org/2000/svg">
  <defs>
    <clipPath id="FolderOpen_svg__a">
      <path d="M0 32h32V0H0v32z" />
    </clipPath>
  </defs>
  <g clipPath="url(#FolderOpen_svg__a)" transform="matrix(1.25 0 0 -1.25 0 40)">
    <path d="M27.002 22.943H15.239s-2.01 5.792-5.089 5.86H5.004c-5.547 0-4.99.484-4.99-4.986V7.985a4.975 4.975 0 014.99-4.978h21.998a4.98 4.98 0 014.996 4.978v9.988c0 2.744-2.232 4.97-4.996 4.97" fill="#b4b3b3" />
    <path d="M-.202 23.95h16.004" fill="none" stroke="#fff" strokeWidth="2" />
    <path d="M4.725 18.02a.94.94 0 010-1.877h21.463c.518 0 .946.421.946.942a.94.94 0 01-.946.934M4.725 14.04a.94.94 0 010-1.878h21.329c.519 0 .946.422.946.942a.94.94 0 01-.946.935M4.725 10.06a.94.94 0 010-1.879h21.4a.95.95 0 01.948.944c0 .52-.43.935-.948.935" fill="#444443" />
  </g>
</svg>
