<svg viewBox="0 0 40 40" xmlns="http://www.w3.org/2000/svg">
  <defs>
    <clipPath id="Gateswap_svg__a">
      <path d="M0 32h32V0H0v32z" />
    </clipPath>
  </defs>
  <g clipPath="url(#Gateswap_svg__a)" transform="matrix(1.25 0 0 -1.25 0 40)">
    <path d="M12.048 11.11L7.113 6.164a.68.68 0 010-1L12.048.2C12.49-.237 13.27.09 13.27.698v9.913c0 .607-.779.932-1.22.5M7.114 5.163s-.282.27 0 0M23.91 5.168L18.974.206c-.44-.437-1.219-.113-1.219.497v9.914c0 .606.776.932 1.22.5l4.935-4.949a.679.679 0 000-1s.283.271 0 0" fill="#444443" />
    <path d="M.538 20.58c-.298 0-.538-.276-.538-.625 0-.35.24-.633.538-.633h4.46c.298 0 .543.283.543.633 0 .349-.245.626-.542.626M.53 27.385c-.293 0-.53-.278-.53-.627 0-.35.237-.633.53-.633h4.605c.293 0 .019.318.019.668 0 .35.274.592-.02.592M12.454 24.08c-.298 0-.537-.275-.537-.624 0-.351.24-.634.537-.634h3.221c.298 0 .542.283.542.634 0 .349-.244.625-.542.625" fill="#9e9e9e" />
    <path d="M5.135 31.023V15.8s7.05.778 7.05 7.277c0 7.215-5.698 7.946-7.05 7.946" fill="#9e9e9e" />
    <path d="M5.135 31.023V15.8s7.05.778 7.05 7.277c0 7.215-5.698 7.946-7.05 7.946z" fill="none" stroke="#9e9e9e" strokeWidth="2" />
    <path d="M16.321 20.58c-.298 0-.538-.276-.538-.625 0-.35.24-.633.538-.633h4.461c.298 0 .542.283.542.633 0 .349-.244.626-.542.626M16.314 27.385c-.294 0-.53-.278-.53-.627 0-.35.236-.633.53-.633h4.604c.293 0 .02.318.02.668 0 .35.273.592-.02.592M28.238 24.08c-.299 0-.537-.275-.537-.624 0-.351.238-.634.537-.634h3.221c.297 0 .541.283.541.634 0 .349-.244.625-.54.625" fill="#9e9e9e" />
    <path d="M20.918 31.023V15.8s7.051.778 7.051 7.277c0 7.215-5.698 7.946-7.051 7.946" fill="#9e9e9e" />
    <path d="M20.918 31.023V15.8s7.051.778 7.051 7.277c0 7.215-5.698 7.946-7.051 7.946z" fill="none" stroke="#9e9e9e" strokeWidth="2" />
  </g>
</svg>
