<svg viewBox="0 0 40 40" xmlns="http://www.w3.org/2000/svg">
  <defs>
    <clipPath id="HelpTopic_svg__a">
      <path d="M0 32h32V0H0v32z" />
    </clipPath>
  </defs>
  <path d="M.016 39.968H39.96V0H.016v39.968z" fill="#b4b3b3" />
  <g clipPath="url(#HelpTopic_svg__a)" transform="matrix(1.25 0 0 -1.25 0 40)">
    <path d="M17.04 24.082a1.518 1.518 0 01-1.53-1.52c0-.85.681-1.536 1.53-1.536h10.468c.845 0 1.541.686 1.541 1.536a1.53 1.53 0 01-1.54 1.52M17.04 17.604a1.518 1.518 0 01-1.53-1.521c0-.847.681-1.536 1.53-1.536h10.468c.845 0 1.541.688 1.541 1.535a1.53 1.53 0 01-1.54 1.521M17.04 11.128a1.52 1.52 0 01-1.53-1.522c0-.846.681-1.536 1.53-1.536h6.353c.843 0 1.542.69 1.542 1.536 0 .845-.699 1.522-1.542 1.522M6.13 13.427c-.082.88-.041 1.628.129 2.247.168.617.4 1.149.696 1.597a5.72 5.72 0 001.015 1.168c.382.329.736.646 1.065.949.33.305.604.622.825.953.22.33.33.723.33 1.179 0 .592-.165 1.066-.494 1.42-.331.356-.92.533-1.764.533-.27 0-.557-.03-.863-.088a6.29 6.29 0 01-.911-.254 7.42 7.42 0 01-1.624-.825l-1.27 2.435c.643.44 1.384.804 2.22 1.09.837.288 1.848.432 3.033.432 1.588 0 2.83-.384 3.728-1.154.895-.77 1.344-1.805 1.344-3.107 0-.863-.115-1.577-.343-2.143a5.197 5.197 0 00-.85-1.447 6.785 6.785 0 00-1.115-1.051 9.72 9.72 0 01-1.116-.977 4.963 4.963 0 01-.862-1.207c-.237-.455-.356-1.038-.356-1.75H6.13zM7.047 8.07c-.611 0-1.06.258-1.06 1.058v1.08c0 .797.449 1.057 1.06 1.057h1.29c.612 0 1.059-.26 1.059-1.057v-1.08c0-.8-.447-1.058-1.058-1.058" fill="#444443" />
  </g>
</svg>
