<svg viewBox="0 0 40 40" xmlns="http://www.w3.org/2000/svg">
  <defs>
    <clipPath id="Help_svg__a">
      <path d="M0 32h32V0H0v32z" />
    </clipPath>
  </defs>
  <g clipPath="url(#Help_svg__a)" transform="matrix(1.25 0 0 -1.25 0 40)">
    <path d="M32 16c0-8.837-7.163-16-16-16C7.164 0 0 7.163 0 16c0 8.836 7.164 16 16 16 8.837 0 16-7.164 16-16" fill="#444443" />
    <path d="M13.223 7.984c-.125 1.311-.062 2.425.19 3.346.251.92.597 1.713 1.04 2.381a8.443 8.443 0 001.51 1.74c.57.49 1.097.963 1.588 1.416a7.9 7.9 0 011.228 1.418c.328.491.492 1.077.492 1.757 0 .882-.246 1.588-.736 2.117-.492.53-1.369.794-2.628.794-.403 0-.83-.044-1.286-.133a9.071 9.071 0 01-1.359-.378 11.164 11.164 0 01-1.305-.566 10.047 10.047 0 01-1.115-.662l-1.89 3.63c.958.654 2.061 1.196 3.308 1.624 1.246.43 2.752.643 4.518.643 2.366 0 4.22-.574 5.556-1.72 1.334-1.147 2.002-2.69 2.002-4.63 0-1.286-.17-2.35-.51-3.194-.34-.845-.762-1.563-1.266-2.155a10.262 10.262 0 00-1.664-1.569 14.39 14.39 0 01-1.662-1.455 7.406 7.406 0 01-1.285-1.796c-.353-.68-.529-1.549-.529-2.608h-4.197zM14.587 0c-.91 0-1.576.385-1.576 1.575v1.611c0 1.189.666 1.575 1.576 1.575h1.925c.91 0 1.575-.386 1.575-1.575V1.575C18.087.385 17.421 0 16.512 0" fill="#fff" />
  </g>
</svg>
