<svg viewBox="0 0 40 40" xmlns="http://www.w3.org/2000/svg">
  <defs>
    <clipPath id="Hlp_svg__a">
      <path d="M0 32h32V0H0v32z" />
    </clipPath>
  </defs>
  <g clipPath="url(#Hlp_svg__a)" transform="matrix(1.25 0 0 -1.25 0 40)">
    <path d="M2.718 26.81V5.259c0-2.468 1.704-4.54 4.01-5.125v31.782a5.249 5.249 0 01-4.01-5.104M24.098 32.077H9.316V-.007h14.782a5.28 5.28 0 015.272 5.265V26.81a5.266 5.266 0 01-5.272 5.266" fill="#444443" />
    <path d="M16.585 12.006c-.1 1.047-.05 1.936.151 2.67.202.733.477 1.367.829 1.898a6.75 6.75 0 001.206 1.389c.454.392.877.768 1.266 1.13.395.362.719.738.981 1.13.261.393.394.86.394 1.404 0 .702-.198 1.267-.589 1.689-.391.42-1.092.632-2.096.632-.322 0-.663-.035-1.027-.106a7.37 7.37 0 01-1.084-.3 8.683 8.683 0 01-1.93-.98l-1.507 2.895c.763.52 1.643.954 2.638 1.296.994.34 2.195.513 3.604.513 1.89 0 3.367-.458 4.434-1.372 1.063-.916 1.596-2.147 1.596-3.695 0-1.025-.136-1.875-.407-2.548-.271-.673-.607-1.247-1.009-1.72a8.29 8.29 0 00-1.328-1.25c-.482-.362-.924-.75-1.326-1.16a5.955 5.955 0 01-1.025-1.434c-.282-.543-.422-1.235-.422-2.081h-3.349zM17.674 5.637c-.725 0-1.257.307-1.257 1.257v1.284c0 .949.532 1.257 1.257 1.257h1.536c.726 0 1.257-.308 1.257-1.257V6.894c0-.95-.531-1.257-1.257-1.257" fill="#fff" />
  </g>
</svg>
