<svg viewBox="0 0 40 40" xmlns="http://www.w3.org/2000/svg">
  <defs>
    <clipPath id="Hole_svg__a">
      <path d="M0 32h32V0H0v32z" />
    </clipPath>
  </defs>
  <g clipPath="url(#Hole_svg__a)" transform="matrix(1.25 0 0 -1.25 0 40)">
    <path d="M30.816 12.63c0 2.864-6.6 5.184-14.743 5.184-8.159 0-14.89-2.32-14.89-5.183 0-.127.046-2.223.046-2.223C1.772 7.717 8.276 5.6 16.073 5.6c7.782 0 14.154 2.117 14.698 4.808 0 0 .045 2.096.045 2.223" fill="#5c5c5b" />
    <path d="m30.766 12.95c0-2.689-6.6-4.87-14.752-4.87-8.142 0-14.748 2.181-14.748 4.87 0 2.683 6.606 4.868 14.748 4.868 8.153 0 14.752-2.185 14.752-4.869" fill="#8a8a89" />
    <path d="m18.324 12.883c0-0.588-1.096-1.066-2.449-1.066-1.352 0-2.448 0.478-2.448 1.066s1.096 1.066 2.448 1.066c1.353 0 2.45-0.478 2.45-1.066" fill="#fff" />
    <path d="M30.816 18.213c0 2.864-6.6 5.184-14.743 5.184-8.159 0-14.89-2.32-14.89-5.184 0-.126.046-2.221.046-2.221.543-2.693 7.047-4.81 14.844-4.81 7.782 0 14.154 2.117 14.698 4.81 0 0 .045 2.095.045 2.22" fill="#fff" />
    <path d="M30.816 21.213c0 2.864-6.6 5.184-14.743 5.184-8.159 0-14.89-2.32-14.89-5.184 0-.126.046-2.221.046-2.221.543-2.692 7.047-4.81 14.844-4.81 7.782 0 14.154 2.118 14.698 4.81 0 0 .045 2.095.045 2.22" fill="#5c5c5b" />
    <path d="m30.75 21.576c0-2.688-6.599-4.869-14.753-4.869-8.142 0-14.747 2.181-14.747 4.87 0 2.683 6.605 4.867 14.747 4.867 8.154 0 14.753-2.184 14.753-4.868" fill="#8a8a89" />
    <path d="M23.625 21.576c0-1.104-3.355-2-7.502-2-4.139 0-7.498.896-7.498 2s3.359 2 7.498 2c4.147 0 7.502-.896 7.502-2" fill="#fff" />
  </g>
</svg>
