<svg viewBox="0 0 40 40" xmlns="http://www.w3.org/2000/svg">
  <defs>
    <clipPath id="Invoke_svg__a">
      <path d="M0 32h32V0H0v32z" />
    </clipPath>
  </defs>
  <g clipPath="url(#Invoke_svg__a)" transform="matrix(1.25 0 0 -1.25 0 40)">
    <path d="M.538 13.178C.24 13.178 0 12.9 0 12.552c0-.35.24-.633.538-.633h4.46c.298 0 .543.283.543.633 0 .349-.245.626-.542.626M.53 19.982c-.293 0-.53-.278-.53-.626 0-.35.237-.633.53-.633h4.605c.293 0 .019.317.019.668 0 .348.274.59-.02.59M12.454 16.678c-.298 0-.537-.277-.537-.626 0-.35.24-.633.537-.633h3.221c.297 0 .542.283.542.633 0 .35-.245.626-.542.626" fill="#444443" />
    <path d="M5.135 23.62V8.397s7.05.778 7.05 7.277c0 7.215-5.698 7.946-7.05 7.946" fill="#444443" />
    <path d="M5.135 23.62V8.397s7.05.778 7.05 7.277c0 7.215-5.698 7.946-7.05 7.946z" fill="none" stroke="#444443" strokeWidth="2" />
    <path d="M16.321 13.178c-.298 0-.538-.277-.538-.626 0-.35.24-.633.538-.633h4.461c.298 0 .542.283.542.633 0 .349-.244.626-.542.626M16.314 19.982c-.294 0-.53-.278-.53-.626 0-.35.236-.633.53-.633h4.604c.293 0 .02.317.02.668 0 .348.273.59-.02.59M28.238 16.678c-.299 0-.537-.277-.537-.626 0-.35.238-.633.537-.633h3.221c.297 0 .541.283.541.633 0 .35-.244.626-.54.626" fill="#b4b3b3" />
    <path d="M20.918 23.62V8.397s7.051.778 7.051 7.277c0 7.215-5.698 7.946-7.051 7.946" fill="#b4b3b3" />
    <path d="M20.918 23.62V8.397s7.051.778 7.051 7.277c0 7.215-5.698 7.946-7.051 7.946z" fill="none" stroke="#b4b3b3" strokeWidth="2" />
  </g>
</svg>
