<svg viewBox="0 0 40 40" xmlns="http://www.w3.org/2000/svg">
  <defs>
    <clipPath id="LabelXrefOn_svg__a">
      <path d="M0 32h32V0H0v32z" />
    </clipPath>
  </defs>
  <g clipPath="url(#LabelXrefOn_svg__a)" transform="matrix(1.25 0 0 -1.25 0 40)">
    <path d="M15.44 18.67h-.033l-1.313-4.531h2.641l-1.295 4.53zm-.875 3.11c.134.453.32.856.86.856.552 0 .755-.42.872-.855l3.245-11.322c.12-.4-.336-.836-.808-.836-.52 0-.787.437-.905.836l-.624 2.008h-3.582l-.639-2.008c-.118-.4-.387-.836-.908-.836-.47 0-.925.437-.807.836l3.296 11.322zM22.124 11.295h3.027c1.211 0 1.916.536 1.916 1.809 0 1.402-.386 2.189-1.916 2.189h-3.027v-3.998zm0 5.67h3.027c1.211 0 1.916.535 1.916 1.806 0 1.406-.386 2.192-1.916 2.192h-3.027v-3.997zm-1.68 5.67h4.707c2.474 0 3.599-1.505 3.599-3.864 0-.97-.218-1.854-1.11-2.641.96-.904 1.11-1.79 1.11-3.026 0-2.193-1.463-3.481-3.599-3.481h-4.707v13.013z" fill="#444443" />
    <path d="M30.25 4.75l-20.701.003-7.725 11.33 8.041 11.143H30.25" fill="none" stroke="#42ab3d" strokeLinecap="round" strokeWidth="3.5" />
  </g>
</svg>
