<svg viewBox="0 0 40 40" xmlns="http://www.w3.org/2000/svg">
  <defs>
    <clipPath id="LbrDevice_svg__a">
      <path d="M0 32h32V0H0v32z" />
    </clipPath>
  </defs>
  <g clipPath="url(#LbrDevice_svg__a)" transform="matrix(1.25 0 0 -1.25 0 40)">
    <path d="M1.06 10.435C.472 10.435 0 9.888 0 9.202c0-.691.472-1.248 1.06-1.248h7.353c.586 0 1.068.557 1.068 1.248 0 .686-.482 1.233-1.068 1.233M1.046 23.843C.466 23.843 0 23.296 0 22.61c0-.69.466-1.248 1.046-1.248H9.05c.578 0 .036.626.036 1.316 0 .687.542 1.165-.036 1.165" fill="#444443" />
    <path d="M1.046 23.843C.466 23.843 0 23.296 0 22.61c0-.69.466-1.248 1.046-1.248h9.073c.578 0 .036.626.036 1.316 0 .687.542 1.165-.036 1.165" fill="#444443" />
    <path d="m10.12 31.014v-30s13.895 1.533 13.895 14.34c0 14.22-11.23 15.66-13.896 15.66z" fill="none" stroke="#444443" strokeWidth="2" />
    <path d="M1.06 10.435C.472 10.435 0 9.888 0 9.202c0-.691.472-1.248 1.06-1.248h8.792c.585 0 1.068.557 1.068 1.248 0 .686-.483 1.233-1.068 1.233" fill="#444443" />
    <path d="M32 7.947H11.109v15.895H32V7.947z" fill="#b4b3b3" />
    <path d="M16.757 22.271a1.26 1.26 0 01-1.266-1.261c0-.701.565-1.272 1.266-1.272h9.939a1.28 1.28 0 011.278 1.272c0 .7-.58 1.261-1.278 1.261M16.757 16.991a1.26 1.26 0 01-1.266-1.26c0-.703.565-1.273 1.266-1.273h9.939c.699 0 1.278.57 1.278 1.272 0 .7-.58 1.261-1.278 1.261M16.757 11.982a1.26 1.26 0 01-1.266-1.26c0-.702.565-1.272 1.266-1.272h3.189c.699 0 1.278.57 1.278 1.271 0 .7-.58 1.261-1.278 1.261" fill="#444443" />
  </g>
</svg>
