<svg viewBox="0 0 40 40" xmlns="http://www.w3.org/2000/svg">
  <defs>
    <clipPath id="LbrOpen_svg__a">
      <path d="M0 32h32V0H0v32z" />
    </clipPath>
  </defs>
  <g clipPath="url(#LbrOpen_svg__a)" transform="matrix(1.25 0 0 -1.25 0 40)">
    <path d="M7.51 27.177c-2.704 0-5.012-.766-6.588-1.813-.92-.614-.92-1.332-.92-2.621L0 5.266s-.112-1.768 2.005-1.477l5.504.862c4.867.73 6.6-2.034 7.6-3.041l-.105 21.54s-.627 4.02-7.495 4.027M24.494 27.279c2.695 0 5-.766 6.595-1.813.911-.614.911-1.332.911-2.621V5.353s.123-1.793-2.015-1.462l-5.49.862c-4.865.73-6.38-2.125-7.377-3.132v21.795s.5 3.856 7.376 3.863" fill="#444443" />
    <path d="M7.51 29.791c-2.703 0-5.012-.765-6.587-1.814-.921-.613-.921-1.33-.921-2.619V7.864s-.12-1.793 2.004-1.461l5.504.862c4.867.73 6.596-2.006 7.596-3.014v21.513s-.73 4.02-7.596 4.027M24.493 29.685c2.695 0 5-.765 6.595-1.814.911-.613.911-1.33.911-2.619V7.758s.123-1.793-2.015-1.46l-5.49.86c-4.865.731-6.38-2.122-7.377-3.13v21.514s.5 4.136 7.376 4.143" fill="#9e9e9e" />
  </g>
</svg>
