<svg viewBox="0 0 40 40" xmlns="http://www.w3.org/2000/svg">
  <defs>
    <clipPath id="LbrPackage_svg__a">
      <path d="M0 32h32V0H0v32z" />
    </clipPath>
  </defs>
  <g clipPath="url(#LbrPackage_svg__a)" transform="matrix(1.25 0 0 -1.25 0 40)">
    <path d="M5.752 29.525c0-20.451-.002-16.784-.004-27.05M15.996 29.525c0-20.451-.002-16.784-.004-27.05M26.248 29.525c0-20.451-.001-16.784-.003-27.05" fill="none" stroke="#444443" strokeLinecap="round" strokeWidth="5" />
    <path d="M.002 27.415V5.082h31.992v22.333" fill="#b4b3b3" />
    <path d="M7.84 11.64h2.344c.415 0 .797-.224.797-.798 0-.574-.382-.797-.797-.797H3.903c-.415 0-.797.223-.797.797 0 .574.382.799.797.799h2.343v9.214H3.903c-.415 0-.797.224-.797.798 0 .574.382.797.797.797h6.28c.416 0 .798-.223.798-.797 0-.574-.382-.798-.797-.798H7.84V11.64zM15.444 10.045c-1.196 0-1.881.479-2.391 1.516l-1.467 2.966c-.271.54-.43 1.05-.43 1.673 0 .7.127 1.132.446 1.769l1.467 2.95c.542 1.1 1.228 1.53 2.456 1.53h2.71c.35 0 .797-.191.797-.796 0-.574-.431-.798-.796-.798h-2.664c-.685 0-.796-.063-1.1-.67l-1.387-2.773c-.207-.431-.334-.717-.334-1.212 0-.447.142-.718.334-1.1l1.356-2.758c.317-.652.477-.701 1.195-.701h2.6c.35 0 .796-.19.796-.8 0-.573-.431-.796-.796-.796h-2.792zM27.33 11.64v1.286c0 .463.206.797.797.797.59 0 .798-.334.798-.797v-2.084c0-.574-.384-.797-.798-.797h-6.28c-.416 0-.798.223-.798.797 0 .574.382.799.797.799h2.342v9.214h-2.342c-.415 0-.797.224-.797.798 0 .574.382.797.797.797h3.937V11.64h1.547z" fill="#444443" />
  </g>
</svg>
