<svg viewBox="0 0 40 40" xmlns="http://www.w3.org/2000/svg">
  <defs>
    <clipPath id="Lock_svg__a">
      <path d="M0 32h32V0H0v32z" />
    </clipPath>
  </defs>
  <g clipPath="url(#Lock_svg__a)" fill="#444443" transform="matrix(1.25 0 0 -1.25 0 40)">
    <path d="M18.243 9.332V5.897c0-1.175-.933-2.132-2.09-2.132-1.157 0-2.094.957-2.094 2.132v3.435a3.669 3.669 0 00-1.498 2.96c0 2 1.611 3.655 3.592 3.655 1.984 0 3.6-1.652 3.6-3.655a3.69 3.69 0 00-1.51-2.96M4 20.372V4.937C4 2.228 6.168 0 8.844 0h14.327c2.658 0 4.83 2.228 4.83 4.937v15.435H4z" />
    <path d="M16.177 32c-5.408 0-9.805-4.483-9.805-9.994L6.304 5.521l3.7-.006.056 16.491c0 3.445 2.744 6.229 6.117 6.229 3.382 0 6.12-2.784 6.12-6.229l.01-15.825h3.703l-.014 15.825c0 5.511-4.41 9.994-9.819 9.994" />
  </g>
</svg>
