<svg viewBox="0 0 40 40" xmlns="http://www.w3.org/2000/svg">
  <defs>
    <clipPath id="Modified_svg__a">
      <path d="M0 32h32V0H0v32z" />
    </clipPath>
  </defs>
  <g clipPath="url(#Modified_svg__a)" transform="matrix(1.25 0 0 -1.25 0 40)">
    <path d="m32.042 16c0-8.837-7.163-16-16-16-8.836 0-16 7.163-16 16 0 8.836 7.164 16 16 16 8.837 0 16-7.164 16-16" fill="#444443" />
    <path d="M16.55 5.413c1.47 0 2.165-.736 2.165-2.203V2.203C18.715.737 18.02 0 16.55 0h-1.004c-1.471 0-2.166.737-2.166 2.203V3.21c0 1.467.695 2.203 2.166 2.203h1.004zm.503 21.317c1.662 0 1.738-1.007 1.662-2.864L18.02 10.61c-.08-1.353-.388-2.473-1.972-2.473-1.585 0-1.895 1.12-1.973 2.473l-.695 13.256c-.117 1.857.04 2.864 1.7 2.864h1.973z" fill="#fff" />
  </g>
</svg>
