<svg viewBox="0 0 40 40" xmlns="http://www.w3.org/2000/svg">
  <defs>
    <clipPath id="Move_svg__a">
      <path d="M0 32h32V0H0v32z" />
    </clipPath>
  </defs>
  <g clipPath="url(#Move_svg__a)" transform="matrix(1.25 0 0 -1.25 0 40)">
    <path d="M10.966 27.502l4.31 4.314a.612.612 0 00.874 0l4.314-4.314c.37-.37.098-1.04-.44-1.04h-2.85v-3.724h-2.93v3.724h-2.85c-.531 0-.81.67-.428 1.04M20.457 4.498L16.147.184a.612.612 0 00-.874 0l-4.314 4.314c-.37.371-.098 1.039.439 1.039h2.85v3.725h2.93V5.537h2.849c.533 0 .811-.668.43-1.039M4.498 11.588l-4.314 4.31a.612.612 0 000 .874l4.314 4.314c.37.37 1.04.098 1.04-.44v-2.85h3.724v-2.93H5.538v-2.85c0-.531-.67-.81-1.04-.428M27.502 21.08l4.314-4.31a.612.612 0 000-.875l-4.314-4.314c-.371-.37-1.039-.098-1.039.44v2.85h-3.725v2.93h3.725v2.848c0 .533.668.811 1.039.43" fill="#686767" />
  </g>
</svg>
