<svg viewBox="0 0 40 40" xmlns="http://www.w3.org/2000/svg">
  <defs>
    <clipPath id="OpenSym_svg__a">
      <path d="M0 32h32V0H0v32z" />
    </clipPath>
  </defs>
  <g clipPath="url(#OpenSym_svg__a)" transform="matrix(1.25 0 0 -1.25 0 40)">
    <path d="M1.06 10.435C.472 10.435 0 9.888 0 9.202c0-.691.472-1.248 1.06-1.248h8.792c.585 0 1.068.557 1.068 1.248 0 .686-.483 1.233-1.068 1.233M1.046 23.843C.466 23.843 0 23.296 0 22.61c0-.69.466-1.248 1.046-1.248h9.073c.578 0 .036.626.036 1.316 0 .687.542 1.165-.036 1.165" fill="#737372" />
    <path d="m10.12 31.014v-30s13.895 1.533 13.895 14.34c0 14.22-11.23 15.66-13.896 15.66z" fill="none" stroke="#737372" strokeWidth="2" />
    <path d="M20.099 16.504v-3.67c0-1.006 1.217-1.588 2.003-.928l7.324 6.102c.58.478.58 1.387 0 1.873l-7.324 6.104c-.786.65-2.003.075-2.003-.942v-3.654h-7.932v-4.885h7.932z" fill="#fff" />
    <path d="M20.815 11.973v-3.67c0-1.006 1.217-1.588 2.003-.928l7.324 6.102c.58.478.58 1.387 0 1.873l-7.324 6.103c-.786.653-2.003.077-2.003-.941v-3.654h-8.482v-4.885h8.482z" fill="#fff" />
    <path d="M21.525 14.28v-3.554c0-.974 1.178-1.538 1.938-.898l7.092 5.908a1.186 1.186 0 010 1.813l-7.092 5.91c-.76.632-1.938.073-1.938-.912v-3.539H13.75V14.28h7.775z" fill="#444443" />
  </g>
</svg>
