<svg viewBox="0 0 40 40" xmlns="http://www.w3.org/2000/svg">
  <defs>
    <clipPath id="OpenDev_svg__a">
      <path d="M0 32h32V0H0v32z" />
    </clipPath>
  </defs>
  <g clipPath="url(#OpenDev_svg__a)" transform="matrix(1.25 0 0 -1.25 0 40)">
    <path d="M.538 17.773c-.298 0-.538-.277-.538-.626 0-.35.24-.633.538-.633h4.46c.298 0 .543.283.543.633 0 .35-.245.626-.542.626M.53 24.578c-.293 0-.53-.278-.53-.626 0-.35.237-.633.53-.633h4.605c.293 0 .019.317.019.668 0 .348.274.59-.02.59M12.454 21.274c-.298 0-.537-.277-.537-.626 0-.35.24-.633.537-.633h3.221c.297 0 .542.283.542.633 0 .349-.245.626-.542.626" fill="#b4b3b3" />
    <path d="M5.135 28.216V12.993s7.05.778 7.05 7.277c0 7.215-5.698 7.946-7.05 7.946" fill="#b4b3b3" />
    <path d="M5.135 28.216V12.993s7.05.778 7.05 7.277c0 7.215-5.698 7.946-7.05 7.946z" fill="none" stroke="#b4b3b3" strokeWidth="2" />
    <path d="M16.321 17.773c-.298 0-.538-.277-.538-.626 0-.35.24-.633.538-.633h4.461c.298 0 .542.283.542.633 0 .35-.244.626-.542.626M16.314 24.578c-.294 0-.53-.278-.53-.626 0-.35.236-.633.53-.633h4.604c.293 0 .02.317.02.668 0 .348.273.59-.02.59M28.238 21.274c-.299 0-.537-.277-.537-.626 0-.35.238-.633.537-.633h3.221c.297 0 .541.283.541.633 0 .349-.244.626-.54.626" fill="#b4b3b3" />
    <path d="M20.918 28.216V12.993s7.051.778 7.051 7.277c0 7.215-5.698 7.946-7.051 7.946" fill="#b4b3b3" />
    <path d="M20.918 28.216V12.993s7.051.778 7.051 7.277c0 7.215-5.698 7.946-7.051 7.946z" fill="none" stroke="#b4b3b3" strokeWidth="2" />
    <path d="M18.365 6.33V2.66c0-1.006 1.217-1.588 2.003-.928l7.324 6.102c.58.478.58 1.387 0 1.873l-7.324 6.105c-.786.651-2.003.075-2.003-.943v-3.654H8.461V6.33h9.904z" fill="#fff" />
    <path d="M18.542 4.724V1.17c0-.974 1.178-1.538 1.938-.898l7.092 5.908a1.186 1.186 0 010 1.813l-7.092 5.91c-.76.632-1.938.074-1.938-.912v-3.54h-9.59V4.725h9.59z" fill="#444443" />
  </g>
</svg>
