<svg viewBox="0 0 40 40" xmlns="http://www.w3.org/2000/svg">
  <defs>
    <clipPath id="OpenPac_svg__a">
      <path d="M0 32h32V0H0v32z" />
    </clipPath>
  </defs>
  <g clipPath="url(#OpenPac_svg__a)" transform="matrix(1.25 0 0 -1.25 0 40)">
    <path d="M5.752 29.525c0-15.33-.002-12.58-.004-20.275M15.996 29.525c0-15.33-.002-12.58-.004-20.275M26.248 29.525c0-15.33-.001-12.58-.003-20.275" fill="none" stroke="#444443" strokeLinecap="round" strokeWidth="5" />
    <path d="M.002 27.292V4.958h31.992v22.334" fill="#b4b3b3" />
    <path d="M32 3.333h-9.333v5.084H32V3.333z" fill="#fff" />
    <path d="M22.237 4.75V2.576c0-1.006 1.217-1.588 2.003-.928l7.324 6.102c.58.479.58 2.514 0 3l-7.324 5.833c-.786.652-3.74.688-3.74-1.979v-3.187h-9.667V4.75h11.404z" fill="#fff" />
    <path d="M22.549 5V1.171c0-.975 1.178-1.538 1.938-.899l7.092 5.909a1.184 1.184 0 010 1.812l-7.092 5.91c-.76.632-1.938.075-1.938-.912V9.453h-9.59V5h9.59z" fill="#444443" />
  </g>
</svg>
