<svg viewBox="0 0 40 40" xmlns="http://www.w3.org/2000/svg">
  <defs>
    <clipPath id="Optimize_svg__a">
      <path d="M0 32h32V0H0v32z" />
    </clipPath>
  </defs>
  <g clipPath="url(#Optimize_svg__a)" transform="matrix(1.25 0 0 -1.25 0 40)">
    <path d="M13.404 20.424c-8.748 0-7.18-.002-11.57-.004M30.333 20.542c-8.745-.001-7.179-.003-11.568-.003" fill="#737372" stroke="#9e9e9e" strokeLinecap="round" strokeWidth="3" />
    <path d="M20.403 8.856h-2.975v-2.97c0-.832-.682-1.51-1.504-1.51-.795 0-1.499.678-1.499 1.51v2.97h-2.97c-.819 0-1.486.684-1.486 1.502 0 .811.667 1.484 1.486 1.484h2.97v3.017c0 .794.704 1.481 1.5 1.481.821 0 1.503-.687 1.503-1.48v-3.018h2.975c.82 0 1.503-.673 1.503-1.484 0-.818-.684-1.502-1.503-1.502 0 0 .827 0 0 0" fill="#444443" />
  </g>
</svg>
