<svg viewBox="0 0 40 40" xmlns="http://www.w3.org/2000/svg">
  <defs>
    <clipPath id="Pad_svg__a">
      <path d="M0 32h32V0H0v32z" />
    </clipPath>
  </defs>
  <g clipPath="url(#Pad_svg__a)" transform="matrix(1.25 0 0 -1.25 0 40)">
    <path d="M31.04 12.962c0 2.864-6.601 5.184-14.743 5.184-8.159 0-14.891-2.32-14.891-5.184 0-.126.047-2.222.047-2.222.543-2.691 7.047-4.81 14.844-4.81 7.782 0 14.154 2.119 14.698 4.81 0 0 .045 2.096.045 2.222" fill="#008c40" />
    <path d="m30.99 13.281c0-2.688-6.6-4.869-14.753-4.869-8.142 0-14.748 2.181-14.748 4.87 0 2.683 6.606 4.867 14.748 4.867 8.153 0 14.752-2.184 14.752-4.868" fill="#42ab3d" />
    <path d="M18.548 13.215c0-.59-1.096-1.066-2.45-1.066-1.351 0-2.447.477-2.447 1.066 0 .588 1.096 1.066 2.448 1.066 1.353 0 2.449-.478 2.449-1.066" fill="#fff" />
    <path d="M31.04 18.544c0 2.864-6.601 5.184-14.743 5.184-8.159 0-14.891-2.32-14.891-5.184 0-.126.047-2.22.047-2.22.543-2.694 7.047-4.81 14.844-4.81 7.782 0 14.154 2.114 14.698 4.81 0 0 .045 2.094.045 2.22" fill="#fff" />
    <path d="M31.04 21.544c0 2.864-6.601 5.184-14.743 5.184-8.159 0-14.891-2.32-14.891-5.184 0-.126.047-2.22.047-2.22.543-2.693 7.047-4.81 14.844-4.81 7.782 0 14.154 2.117 14.698 4.81 0 0 .045 2.094.045 2.22" fill="#008c40" />
    <path d="m30.99 21.864c0-2.688-6.6-4.87-14.753-4.87-8.142 0-14.748 2.182-14.748 4.87 0 2.684 6.606 4.868 14.748 4.868 8.153 0 14.752-2.184 14.752-4.868" fill="#42ab3d" />
    <path d="M18.548 21.797c0-.588-1.096-1.066-2.45-1.066-1.351 0-2.447.478-2.447 1.066 0 .589 1.096 1.066 2.448 1.066 1.353 0 2.449-.477 2.449-1.066" fill="#fff" />
  </g>
</svg>
