<svg viewBox="0 0 40 40" xmlns="http://www.w3.org/2000/svg">
  <defs>
    <clipPath id="PinFunctionDot_svg__a">
      <path d="M0 32h32V0H0v32z" />
    </clipPath>
  </defs>
  <path d="M0 40h16.875V.01H0V40z" fill="#b4b3b3" />
  <g clipPath="url(#PinFunctionDot_svg__a)" transform="matrix(1.25 0 0 -1.25 0 40)">
    <path d="M29.455 15.998c-3.08 0-2.527-.002-4.074-.004" fill="none" stroke="#444443" strokeLinecap="round" strokeWidth="5" />
    <path d="M17.872 13.553a2.928 2.928 0 014.086.7c.946 1.343.65 3.185-.685 4.128-1.334.939-3.168.597-4.114-.745a2.925 2.925 0 01.713-4.083m5.22 7.407a6.132 6.132 0 001.471-8.544c-1.932-2.738-5.77-3.396-8.52-1.46-2.758 1.945-3.403 5.763-1.473 8.503 1.963 2.785 5.764 3.446 8.522 1.5" fill="#444443" />
  </g>
</svg>
