<svg viewBox="0 0 40 40" xmlns="http://www.w3.org/2000/svg">
  <defs>
    <clipPath id="Pinswap_svg__a">
      <path d="M0 32h32V0H0v32z" />
    </clipPath>
  </defs>
  <g clipPath="url(#Pinswap_svg__a)" transform="matrix(1.25 0 0 -1.25 0 40)">
    <path d="m16.127 27.576c9.583 0 7.862-2e-3 12.67-5e-3" fill="none" stroke="#737372" strokeLinecap="round" strokeWidth="5" />
    <path d="m16.165 4.493c8.015 0 6.576-2e-3 10.599-4e-3" fill="#737372" stroke="#737372" strokeLinecap="round" strokeWidth="5" />
    <path d="M26.392 0h5.592v31.992h-5.592V0z" fill="#b4b3b3" />
    <path d="M10.616 14.009H.702c-.607 0-.93-.778-.499-1.221L5.15 7.854a.68.68 0 011.002 0l4.962 4.934c.437.443.112 1.22-.497 1.22M6.15 7.854s-.268-.282 0 0M6.146 24.65l4.962-4.936c.437-.44.112-1.22-.498-1.22H.697c-.606 0-.932.776-.5 1.22l4.949 4.935c.29.304.73.284 1 0 0 0-.27.284 0 0" fill="#444443" />
  </g>
</svg>
