<svg viewBox="0 0 40 40" xmlns="http://www.w3.org/2000/svg">
  <defs>
    <clipPath id="PinVisiblePin_svg__a">
      <path d="M0 32h32V0H0v32z" />
    </clipPath>
  </defs>
  <path d="M19.995 40h20.006V0H19.995v40z" fill="#444443" />
  <path d="M0 39.961h20V0H0V39.96z" fill="#b4b3b3" />
  <g clipPath="url(#PinVisiblePin_svg__a)" transform="matrix(1.25 0 0 -1.25 0 40)">
    <path d="M11.803 10.96c.502 0 .966-.271.966-.965 0-.696-.464-.966-.966-.966H3.231v15.022h8.572c.502 0 .966-.27.966-.966 0-.694-.464-.965-.966-.965H5.161v-4.614h2.84c.501 0 .965-.271.965-.966 0-.696-.464-.965-.966-.965H5.161V10.96h6.642z" fill="#444443" />
  </g>
</svg>
