<svg viewBox="0 0 40 40" xmlns="http://www.w3.org/2000/svg">
  <path d="M21.7 0v5.027L10.28 16.213H5.254V40h29.491V0H21.7z" fill="#444443" />
  <path d="m11.71 24.886h-3.75v-3.75h3.75v3.75zm-0.041 6.49h-3.75v-3.749h3.75v3.75zm-0.044 6.178h-3.75v-3.749h3.75v3.749zm6.735-12.674h-3.75v-3.75h3.75v3.75zm-0.04 6.489h-3.75v-3.749h3.75v3.748zm-0.044 6.178h-3.75v-3.75h3.75v3.75zm6.811-12.675h-3.75v-3.75h3.75v3.75zm-0.038 6.489h-3.75v-3.747h3.75v3.747zm-0.045 6.179h-3.75v-3.75h3.75v3.75zm6.826-12.585h-3.749v-3.75h3.749v3.75zm-0.039 6.487h-3.751v-3.747h3.751v3.748zm-0.046 6.181h-3.75v-3.75h3.75v3.75zm-13.425-18.881h-3.75v-3.747h3.75v3.748zm6.767-6.496h-3.75v-3.75h3.75v3.75zm-0.038 6.489h-3.75v-3.748h3.75v3.748zm6.781-6.406h-3.749v-3.75h3.749v3.75zm-0.039 6.487h-3.751v-3.746h3.751v3.747zm0.073-12.772h-3.749v-3.75h3.749v3.75z" fill="#fff" />
</svg>
