<svg viewBox="0 0 40 40" xmlns="http://www.w3.org/2000/svg">
  <defs>
    <clipPath id="Prefix_svg__a">
      <path d="M0 32h32V0H0v32z" />
    </clipPath>
  </defs>
  <g clipPath="url(#Prefix_svg__a)" transform="matrix(1.25 0 0 -1.25 0 40)">
    <path d="M7.606 8.455h3.766c.666 0 1.28-.359 1.28-1.283 0-.922-.614-1.28-1.28-1.28H1.28C.615 5.892 0 6.25 0 7.172c0 .924.615 1.283 1.28 1.283h3.765v14.803H1.28c-.665 0-1.28.36-1.28 1.28 0 .923.615 1.281 1.28 1.281h10.092c.666 0 1.28-.358 1.28-1.28s-.614-1.28-1.28-1.28H7.606V8.454zM20.237 5.893c-1.92 0-3.02.766-3.84 2.434l-2.357 4.76c-.436.872-.692 1.693-.692 2.692 0 1.127.205 1.818.718 2.843l2.355 4.739c.873 1.767 1.973 2.459 3.945 2.459h4.355c.563 0 1.278-.307 1.278-1.281 0-.922-.69-1.281-1.278-1.281h-4.278c-1.102 0-1.28-.102-1.767-1.076l-2.229-4.456c-.333-.692-.539-1.152-.539-1.947 0-.717.232-1.154.54-1.767l2.176-4.43c.512-1.052.768-1.126 1.922-1.126h4.175c.563 0 1.278-.31 1.278-1.284 0-.922-.69-1.28-1.278-1.28h-4.484z" fill="#444443" />
    <path d="M28.685 1.916c0-1.11.73-1.999 1.648-1.999.922 0 1.667.889 1.667 1.999v27.985c0 1.105-.745 2.016-1.667 2.016-.917 0-1.648-.911-1.648-2.016" fill="#8a8a89" />
  </g>
</svg>
