<svg viewBox="0 0 40 40" xmlns="http://www.w3.org/2000/svg">
  <defs>
    <clipPath id="Print_svg__a">
      <path d="M0 32h32V0H0v32z" />
    </clipPath>
  </defs>
  <g clipPath="url(#Print_svg__a)" transform="matrix(1.25 0 0 -1.25 0 40)">
    <path d="M27.505 19.898v-3.843H4.638v3.843c-2.625-.56-4.571-2.622-4.571-5.073V9.344c0-2.46 1.946-4.532 4.57-5.071v3.823h22.868V4.273c2.618.539 4.562 2.61 4.562 5.07v5.482c0 2.45-1.944 4.513-4.562 5.073M8.088 3.99v-2C8.088.9 9.218 0 10.594 0h10.95c1.378 0 2.49.901 2.49 1.99v2H8.089z" fill="#444443" />
    <path d="M21.545 32H10.594c-1.375 0-2.506-1.119-2.506-2.487v-9.462h15.947v9.462A2.49 2.49 0 0121.545 32" fill="#b4b3b3" />
    <path d="M10.727 28.465a.761.761 0 110-1.521h10.637a.76.76 0 110 1.521M10.727 24.41a.76.76 0 110-1.52h10.637a.76.76 0 110 1.52" fill="#444443" />
  </g>
</svg>
