<svg viewBox="0 0 40 40" xmlns="http://www.w3.org/2000/svg">
  <defs>
    <clipPath id="ProjectClosed_svg__a">
      <path d="M0 32h32V0H0v32z" />
    </clipPath>
  </defs>
  <g clipPath="url(#ProjectClosed_svg__a)" transform="matrix(1.25 0 0 -1.25 0 40)">
    <path d="M27.002 22.933H15.239s-2.01 5.792-5.089 5.861H5.004c-5.547 0-4.99.483-4.99-4.987V7.975a4.975 4.975 0 014.99-4.978h21.998a4.98 4.98 0 014.996 4.978v9.988c0 2.744-2.232 4.97-4.996 4.97" fill="#444443" />
    <path d="m0 23.95h15.802" fill="none" stroke="#fff" strokeWidth="2" />
    <path d="m8.796 10.016h-6.07v6.07h6.07v-6.07zm10.42 0h-6.105v6.106h6.105v-6.106zm10.028 0h-6.142v6.142h6.142v-6.142z" fill="#b4b3b3" />
  </g>
</svg>
