<svg viewBox="0 0 40 40" xmlns="http://www.w3.org/2000/svg">
  <defs>
    <clipPath id="Ratsnest_svg__a" />
    <clipPath id="Ratsnest_svg__b" />
    <clipPath id="Ratsnest_svg__c" />
    <clipPath id="Ratsnest_svg__d" />
    <clipPath id="Ratsnest_svg__e" />
  </defs>
  <path d="m18.594 18.75-10.08 10.876" fill="#8a8a89" />
  <path d="m18.594 18.75 6.486 16.345" fill="#8a8a89" />
  <path d="m25.725 4.905-7.481 13.455" fill="#8a8a89" />
  <path d="m33.206 21.563-14.963-3.204" fill="#8a8a89" />
  <path d="M18.594 18.75L4.919 8.811" fill="#8a8a89" />
  <g clipPath="url(#Ratsnest_svg__a)" transform="matrix(1.25 0 0 -1.25 0 40)">
    <path d="m14.875 17-8.064-8.701" fill="none" stroke="#b4b3b3" strokeWidth="3.5" />
  </g>
  <g clipPath="url(#Ratsnest_svg__b)" transform="matrix(1.25 0 0 -1.25 0 40)">
    <path d="m14.875 17 5.189-13.076" fill="none" stroke="#b4b3b3" strokeWidth="3.5" />
  </g>
  <g clipPath="url(#Ratsnest_svg__c)" transform="matrix(1.25 0 0 -1.25 0 40)">
    <path d="m20.58 28.076-5.985-10.764" fill="none" stroke="#b4b3b3" strokeWidth="3.5" />
  </g>
  <g clipPath="url(#Ratsnest_svg__d)" transform="matrix(1.25 0 0 -1.25 0 40)">
    <path d="m26.564 14.75-11.97 2.563" fill="none" stroke="#b4b3b3" strokeWidth="3.5" />
  </g>
  <g clipPath="url(#Ratsnest_svg__e)" transform="matrix(1.25 0 0 -1.25 0 40)">
    <path d="m14.875 17-10.94 7.951" fill="none" stroke="#b4b3b3" strokeWidth="3.5" />
    <path d="M10.747 8.284a3.905 3.905 0 00-3.922-3.909c-2.17 0-3.95 1.726-3.95 3.91a3.937 3.937 0 003.95 3.937 3.92 3.92 0 003.922-3.938M7.87 24.937a3.904 3.904 0 00-3.92-3.909c-2.17 0-3.95 1.725-3.95 3.909a3.936 3.936 0 003.95 3.938 3.919 3.919 0 003.92-3.938M18.81 16.986a3.906 3.906 0 00-3.921-3.91c-2.17 0-3.95 1.727-3.95 3.91a3.936 3.936 0 003.95 3.938 3.92 3.92 0 003.922-3.938M31.871 14.736a3.905 3.905 0 00-3.922-3.909c-2.17 0-3.949 1.725-3.949 3.91a3.936 3.936 0 003.95 3.937 3.92 3.92 0 003.921-3.938M24 3.911a3.905 3.905 0 00-3.922-3.91c-2.169 0-3.949 1.724-3.949 3.91a3.937 3.937 0 003.949 3.938A3.921 3.921 0 0024 3.911M24.374 28.062a3.906 3.906 0 00-3.922-3.909c-2.17 0-3.949 1.726-3.949 3.909A3.935 3.935 0 0020.452 32a3.92 3.92 0 003.922-3.938" fill="#444443" />
  </g>
</svg>
