<svg viewBox="0 0 40 40" xmlns="http://www.w3.org/2000/svg">
  <defs>
    <clipPath id="Redo_svg__a">
      <path d="M0 32h32V0H0v32z" />
    </clipPath>
  </defs>
  <g clipPath="url(#Redo_svg__a)" transform="matrix(1.25 0 0 -1.25 0 40)">
    <path d="M.046 13.032c2.153 5.368 8.415 7.693 14.076 5.462 2.388-.939 4.332-2.608 5.564-4.675l-3.925-1.605c-.9-.36-.876-1.627.067-1.997l5.44-2.17 5.116-2.02c.243-.094.543-.099.795-.007.289.097.549.282.676.575l.06.153.559 1.388 3.454 8.528c.347.87-.627 1.798-1.53 1.446l-3.981-1.653a19.22 19.22 0 01-1.905 2.85 18.653 18.653 0 01-3.272 3.183 19.046 19.046 0 01-4.506 2.512C7.294 28.72 3.587 21.985 0 13.052l.046-.02z" fill="#444443" />
  </g>
</svg>
