<svg viewBox="0 0 40 40" xmlns="http://www.w3.org/2000/svg">
  <defs>
    <clipPath id="Ripup_svg__a" />
    <clipPath id="Ripup_svg__b" />
    <clipPath id="Ripup_svg__c" />
  </defs>
  <path d="M4.407 5.707h17.038H4.407z" fill="#8a8a89" />
  <path d="M21.509 17.422L21.5 6.315l.008 11.107z" fill="#8a8a89" />
  <path d="m21.602 17.773 12.46 16.017" fill="#8a8a89" />
  <g clipPath="url(#Ripup_svg__a)" transform="matrix(1.25 0 0 -1.25 0 40)">
    <path d="m3.525 27.435h13.631" fill="none" stroke="#2b74b9" strokeLinecap="round" strokeWidth="4.5" />
  </g>
  <g clipPath="url(#Ripup_svg__b)" transform="matrix(1.25 0 0 -1.25 0 40)">
    <path d="M17.201 26.948l.006-8.886" fill="none" stroke="#2b74b9" strokeLinecap="round" strokeWidth="4.5" />
  </g>
  <g clipPath="url(#Ripup_svg__c)" transform="matrix(1.25 0 0 -1.25 0 40)">
    <path d="m17.281 17.781 9.97-12.813" fill="none" stroke="#2b74b9" strokeLinecap="round" strokeWidth="4.5" />
    <path d="M26.547 9.238a4.66 4.66 0 005.386-3.802c.432-2.512-1.278-4.93-3.8-5.368a4.646 4.646 0 00-5.363 3.783 4.639 4.639 0 003.777 5.387M3.848 31.93a4.66 4.66 0 005.386-3.801c.432-2.512-1.278-4.93-3.8-5.368a4.646 4.646 0 00-5.363 3.783 4.639 4.639 0 003.777 5.387" fill="#42ab3d" />
    <path d="M25.375 12.75H11.844v12.438h13.531V12.75z" fill="#fff" fillOpacity=".5" />
    <path d="M21.476 14.79l-2.102 2.103-2.101-2.102a1.517 1.517 0 00-2.133-.002c-.561.562-.578 1.541.008 2.127l2.1 2.103-2.1 2.1a1.5 1.5 0 00.014 2.111c.572.574 1.519.58 2.098.001l2.1-2.1 2.134 2.132c.562.563 1.546.551 2.107-.012.582-.58.58-1.55.018-2.113l-2.133-2.133 2.103-2.103c.578-.58.584-1.539.012-2.113a1.519 1.519 0 00-2.125 0s.586-.584 0 0" fill="#dd203c" />
  </g>
</svg>
