<svg viewBox="0 0 40 40" xmlns="http://www.w3.org/2000/svg">
  <defs>
    <clipPath id="Rotate_svg__a">
      <path d="M0 32h32V0H0v32z" />
    </clipPath>
  </defs>
  <g clipPath="url(#Rotate_svg__a)" transform="matrix(1.25 0 0 -1.25 0 40)">
    <path d="M30.5 16c0-8.008-6.492-14.5-14.5-14.5S1.5 7.992 1.5 16 7.992 30.5 16 30.5 30.5 24.008 30.5 16z" fill="none" stroke="#b4b3b3" strokeLinecap="round" strokeWidth="3" />
    <path d="M27.516 30.442l-5.921-.581a.567.567 0 01-.54-.655l.58-5.922c.039-.522.72-.728 1.062-.314l1.14 1.385 3.05 3.715 1.15 1.404c.327.398-.007 1.02-.521.968" fill="#fff" />
    <path d="M20.318 15.979a4.047 4.047 0 10-8.094 0 4.047 4.047 0 008.094 0" fill="#444443" />
    <path d="M29.977 28.199l-5.921-.581a.567.567 0 01-.54-.655l.58-5.922c.039-.522.72-.728 1.062-.314l1.14 1.385 3.05 3.715 1.15 1.404c.327.398-.007 1.02-.521.968" fill="#fff" />
    <path d="M29.012 29.22l-5.921-.58a.567.567 0 01-.54-.655l.58-5.922c.039-.522.72-.73 1.062-.314l1.14 1.384 3.05 3.716 1.15 1.404c.327.398-.007 1.02-.521.968" fill="#444443" />
  </g>
</svg>
