<svg viewBox="0 0 40 40" xmlns="http://www.w3.org/2000/svg">
  <defs>
    <clipPath id="Run_svg__a">
      <path d="M0 32h32V0H0v32z" />
    </clipPath>
  </defs>
  <path d="M.016 39.968H39.96V0H.016v39.968z" fill="#b4b3b3" />
  <g clipPath="url(#Run_svg__a)" transform="matrix(1.25 0 0 -1.25 0 40)">
    <path d="M5.883 10.416c-.776 0-1.381.187-1.925.793-.513.573-.59 1.132-.59 1.847v8.663c0 .497.218.776.776.776.559 0 .777-.279.777-.776v-8.663c0-.87.263-1.088.962-1.088h2.64c.698 0 .962.218.962 1.088v8.663c0 .497.218.776.776.776.56 0 .776-.279.776-.776v-8.663c0-.715-.077-1.274-.59-1.847-.543-.606-1.148-.793-1.924-.793h-2.64zM19.683 11.968c.403 0 .776-.217.776-.775 0-.56-.373-.777-.776-.777h-6.894v11.303c0 .497.218.776.777.776s.776-.28.776-.776v-9.751h5.34zM23.097 16.533h3.445c.917 0 1.119.233 1.119 1.118v2.174c0 .884-.202 1.117-1.12 1.117h-3.444v-4.409zm0-5.34c0-.498-.218-.777-.776-.777-.56 0-.777.28-.777.776v11.303h5.155c.712 0 1.225-.109 1.786-.636.667-.622.729-1.196.729-2.034v-2.113c0-.79-.062-1.35-.638-1.986-.605-.684-1.241-.746-2.08-.746h-3.4v-3.788z" fill="#f39415" />
  </g>
</svg>
