<svg viewBox="0 0 40 40" xmlns="http://www.w3.org/2000/svg">
  <defs>
    <clipPath id="Sch_svg__a">
      <path d="M0 32h32V0H0v32z" />
    </clipPath>
  </defs>
  <g clipPath="url(#Sch_svg__a)" transform="matrix(1.25 0 0 -1.25 0 40)">
    <path d="M26.463 27c0 .817-.308 1.555-.847 2.125a2.785 2.785 0 01-2.038.873H10.212c-.774 0-1.494-.3-2.03-.873A3.028 3.028 0 017.34 27V4.996c0-1.648 1.29-2.994 2.873-2.994H20.727v6.143h5.736V27zm1.904-19.07a2.182 2.182 0 00-.56-1.34L22.075.586A1.9 1.9 0 0020.71 0H10.212C7.557 0 5.43 2.241 5.43 4.996V27c0 1.388.54 2.642 1.403 3.547.87.892 2.053 1.453 3.379 1.453h13.366a4.688 4.688 0 003.382-1.453A5.137 5.137 0 0028.367 27V7.93z" fill="#444443" />
    <path d="M26.459 12.143H3.628v14h22.831v-14z" fill="#b4b3b3" />
    <path d="M10.956 16.95c.23-.297.401-.561.401-.952 0-.86-.654-1.297-1.445-1.297H7.387c-.437 0-.815.08-1.16.368-.31.252-.539.665-.539 1.067 0 .367.206.689.608.689.333 0 .54-.275.54-.585 0-.345.183-.391.505-.391h2.49c.092 0 .378-.035.378.139 0 .09-.16.263-.206.332l-3.937 5.06c-.24.31-.378.54-.378.943 0 .459.218.849.608 1.1.321.208.585.208.952.208h2.434c.436 0 .803-.092 1.136-.38.3-.263.54-.688.54-1.09 0-.367-.184-.665-.597-.665-.345 0-.552.218-.552.539 0 .39-.194.448-.55.448H7.226c-.126 0-.39.034-.39-.16 0-.104.126-.242.171-.311l3.95-5.061zM14.902 14.701c-.861 0-1.354.344-1.722 1.091l-1.055 2.134c-.196.39-.31.757-.31 1.205 0 .505.09.815.32 1.274l1.057 2.124c.39.791.884 1.101 1.767 1.101h1.95c.253 0 .576-.137.576-.574 0-.413-.311-.574-.575-.574h-1.916c-.494 0-.574-.046-.792-.482l-1-1.997c-.148-.309-.24-.516-.24-.872 0-.322.104-.516.24-.792l.976-1.985c.23-.47.346-.506.86-.506h1.872c.252 0 .575-.137.575-.573 0-.413-.311-.574-.575-.574h-2.008zM19.838 18.592v-3.317c0-.368-.16-.574-.573-.574-.413 0-.574.206-.574.574v7.782c0 .367.16.574.574.574.413 0 .573-.207.573-.574V19.74h3.375v3.317c0 .367.16.574.573.574.413 0 .574-.207.574-.574v-7.782c0-.368-.161-.574-.574-.574-.413 0-.573.206-.573.574v3.317h-3.375z" fill="#bf272f" />
  </g>
</svg>
