<svg viewBox="0 0 40 40" xmlns="http://www.w3.org/2000/svg">
  <defs>
    <clipPath id="Scr_svg__a">
      <path d="M0 32h32V0H0v32z" />
    </clipPath>
  </defs>
  <g clipPath="url(#Scr_svg__a)" transform="matrix(1.25 0 0 -1.25 0 40)">
    <path d="M26.463 27c0 .817-.308 1.555-.847 2.125a2.785 2.785 0 01-2.038.873H10.212c-.774 0-1.494-.3-2.03-.873A3.028 3.028 0 017.34 27V4.996c0-1.648 1.29-2.994 2.873-2.994H20.727v6.143h5.736V27zm1.904-19.07a2.182 2.182 0 00-.56-1.34L22.075.586A1.9 1.9 0 0020.71 0H10.212C7.557 0 5.43 2.241 5.43 4.996V27c0 1.388.54 2.642 1.403 3.547.87.892 2.053 1.453 3.379 1.453h13.366a4.688 4.688 0 003.382-1.453A5.137 5.137 0 0028.367 27V7.93z" fill="#444443" />
    <path d="M26.463 12.164H3.633v14h22.83v-14z" fill="#b4b3b3" />
    <path d="M11.283 17.002c.224-.297.392-.562.392-.953 0-.86-.64-1.294-1.413-1.294h-2.47c-.426 0-.796.08-1.132.365-.303.255-.528.666-.528 1.067 0 .367.202.688.595.688.325 0 .527-.277.527-.586 0-.343.179-.39.495-.39h2.434c.09 0 .37-.031.37.139 0 .092-.157.265-.201.334l-3.85 5.05c-.236.31-.37.539-.37.94 0 .458.214.848.595 1.1.314.207.57.207.932.207h2.377c.428 0 .787-.092 1.11-.38.293-.264.529-.687.529-1.088 0-.367-.18-.663-.583-.663-.336 0-.538.216-.538.538 0 .388-.191.447-.54.447H7.637c-.124 0-.382.035-.382-.162 0-.102.124-.24.169-.309l3.86-5.05zM14.903 14.724c-.842 0-1.324.344-1.683 1.087l-1.032 2.132c-.191.39-.304.755-.304 1.202 0 .504.09.813.314 1.27l1.034 2.12c.38.793.862 1.102 1.728 1.102h1.906c.249 0 .56-.137.56-.573 0-.414-.301-.572-.56-.572h-1.873c-.483 0-.561-.048-.774-.482l-.977-1.994c-.147-.31-.236-.515-.236-.871 0-.321.1-.514.236-.788l.953-1.984c.225-.47.338-.505.842-.505h1.829c.249 0 .56-.135.56-.572 0-.411-.301-.572-.56-.572h-1.963zM19.673 20.704h2.49c.313 0 .807.024.807.48v.79c0 .459-.458.518-.797.518h-2.5v-1.788zm0-5.408c0-.366-.158-.572-.562-.572s-.561.206-.561.572v8.34h3.77c.888 0 1.773-.642 1.773-1.661v-.79c0-1.075-.875-1.63-1.773-1.63h-1.032l2.525-3.687c.123-.171.28-.39.28-.607 0-.321-.257-.537-.571-.537-.225 0-.371.136-.495.32l-3.097 4.512h-.257v-4.26z" fill="#2b74b9" />
  </g>
</svg>
