<svg viewBox="0 0 40 40" xmlns="http://www.w3.org/2000/svg">
  <defs>
    <clipPath id="Script_svg__a">
      <path d="M0 32h32V0H0v32z" />
    </clipPath>
  </defs>
  <path d="M.016 39.968H39.96V0H.016v39.968z" fill="#b4b3b3" />
  <g clipPath="url(#Script_svg__a)" transform="matrix(1.25 0 0 -1.25 0 40)">
    <path d="M10.689 13.395c.306-.408.537-.771.537-1.307 0-1.175-.876-1.771-1.935-1.771H5.909c-.585 0-1.092.11-1.552.502-.415.346-.723.908-.723 1.457 0 .506.277.945.815.945.445 0 .722-.38.722-.803 0-.468.246-.533.678-.533h3.334c.124 0 .508-.045.508.188 0 .125-.217.363-.277.457l-5.273 6.917c-.324.425-.507.738-.507 1.287 0 .627.293 1.16.815 1.508.43.282.782.282 1.277.282h3.255c.585 0 1.077-.126 1.522-.52.399-.36.723-.94.723-1.49 0-.501-.246-.907-.799-.907-.461 0-.736.296-.736.736 0 .532-.263.613-.739.613H5.693c-.168 0-.522.047-.522-.222 0-.14.17-.33.231-.423l5.287-6.916zM15.646 10.273c-1.153 0-1.812.471-2.305 1.488l-1.413 2.922c-.262.531-.416 1.031-.416 1.645 0 .69.125 1.112.43 1.74l1.417 2.904c.52 1.084 1.18 1.508 2.367 1.508h2.608c.342 0 .767-.188.767-.785 0-.567-.41-.784-.767-.784H15.77c-.66 0-.768-.066-1.06-.659l-1.338-2.732c-.2-.423-.323-.705-.323-1.192 0-.44.14-.704.323-1.08l1.306-2.715c.308-.645.462-.694 1.153-.694h2.504c.342 0 .767-.185.767-.783 0-.562-.41-.783-.767-.783h-2.688zM22.18 18.463h3.41c.429 0 1.106.033 1.106.659v1.08c0 .63-.63.709-1.091.709H22.18v-2.448zm0-7.406c0-.502-.216-.783-.77-.783-.553 0-.768.28-.768.783V22.48h5.163c1.217 0 2.429-.881 2.429-2.277v-1.081c0-1.472-1.2-2.231-2.43-2.231h-1.411l3.456-5.051c.168-.232.385-.533.385-.83 0-.442-.353-.736-.783-.736-.308 0-.51.185-.677.439L22.53 16.89h-.35v-5.834z" fill="#2b74b9" />
  </g>
</svg>
