<svg viewBox="0 0 40 40" xmlns="http://www.w3.org/2000/svg">
  <defs>
    <clipPath id="SheetNew_svg__a">
      <path d="M0 32h32V0H0v32z" />
    </clipPath>
  </defs>
  <g clipPath="url(#SheetNew_svg__a)" transform="matrix(1.25 0 0 -1.25 0 40)">
    <path d="M22.834 27c0 .817-.307 1.555-.846 2.125a2.787 2.787 0 01-2.039.873H6.584c-.775 0-1.495-.3-2.03-.873A3.028 3.028 0 013.71 27V4.996c0-1.648 1.291-2.994 2.874-2.994h10.514l3.078 3.064 2.658 3.079V27zm1.904-19.07a2.181 2.181 0 00-.558-1.34L18.445.586A1.9 1.9 0 0017.082 0H6.584C3.928 0 1.801 2.241 1.801 4.996V27a5.13 5.13 0 001.404 3.547C4.075 31.439 5.257 32 6.584 32h13.365a4.688 4.688 0 003.383-1.453A5.14 5.14 0 0024.738 27V7.93z" fill="#444443" />
    <path d="M22.83 12.166H0v13.999h22.83V12.166z" fill="#b4b3b3" />
    <path d="M26.739 6.739h-6.947v5.389h6.947V6.739z" fill="#fff" />
    <path d="M30.498 4.48h-2.975V1.51c0-.83-.683-1.51-1.505-1.51-.795 0-1.499.68-1.499 1.51v2.97h-2.97c-.819 0-1.485.684-1.485 1.502a1.49 1.49 0 001.485 1.484h2.97v3.017c0 .795.704 1.482 1.499 1.482.822 0 1.505-.687 1.505-1.482V7.466h2.975c.818 0 1.502-.673 1.502-1.484 0-.818-.684-1.502-1.502-1.502 0 0 .826 0 0 0" fill="#42ab3d" />
    <path d="M18.346 15.337H4.485v7.657h13.861v-7.657z" fill="none" stroke="#444443" strokeWidth="1.5" />
  </g>
</svg>
