<svg viewBox="0 0 40 40" xmlns="http://www.w3.org/2000/svg">
  <defs>
    <clipPath id="SheetRemove_D_svg__a">
      <path d="M0 32h32V0H0v32z" />
    </clipPath>
  </defs>
  <g clipPath="url(#SheetRemove_D_svg__a)" transform="matrix(1.25 0 0 -1.25 0 40)">
    <path d="M22.834 27c0 .817-.307 1.555-.846 2.125a2.787 2.787 0 01-2.039.873H6.584c-.775 0-1.495-.3-2.03-.873A3.028 3.028 0 013.71 27V4.996c0-1.648 1.291-2.994 2.874-2.994h10.514l3.078 3.064 2.658 3.079V27zm1.904-19.07a2.181 2.181 0 00-.558-1.34L18.445.586A1.9 1.9 0 0017.082 0H6.584C3.928 0 1.801 2.241 1.801 4.996V27a5.13 5.13 0 001.404 3.547C4.075 31.439 5.257 32 6.584 32h13.365a4.688 4.688 0 003.383-1.453A5.14 5.14 0 0024.738 27V7.93z" fill="#737372" />
    <path d="M22.83 12.143H0v14h22.83v-14z" fill="#b4b3b3" />
    <path d="M26.739 6.739h-6.947v5.389h6.947V6.739z" fill="#fff" />
    <path d="M29.438.436l-2.103 2.105-2.1-2.101A1.517 1.517 0 0023.1.437c-.56.562-.578 1.54.008 2.127l2.101 2.101-2.1 2.1a1.5 1.5 0 00.013 2.11 1.487 1.487 0 002.098.002l2.101-2.1 2.133 2.133c.562.562 1.545.55 2.107-.012.582-.581.58-1.551.018-2.113l-2.133-2.133 2.102-2.103c.58-.58.585-1.538.013-2.112a1.519 1.519 0 00-2.125 0s.585-.584 0 0" fill="#b4b3b3" />
    <path d="M18.346 15.337H4.485v7.657h13.861v-7.657z" fill="none" stroke="#737372" strokeWidth="1.5" />
  </g>
</svg>
