<svg viewBox="0 0 40 40" xmlns="http://www.w3.org/2000/svg">
  <defs>
    <clipPath id="Show_svg__a">
      <path d="M0 32h32V0H0v32z" />
    </clipPath>
  </defs>
  <g clipPath="url(#Show_svg__a)" transform="matrix(1.25 0 0 -1.25 0 40)">
    <path d="M29.753 16.542c0-5.551-6.66-10.05-14.876-10.05S0 10.991 0 16.542c0 5.55 6.66 10.05 14.876 10.05s14.876-4.5 14.876-10.05" fill="#fff" />
    <path d="M22.046 8.488c-5.84-2.584-14.181-1.863-18.662 1.808.124-.134.266-.26.396-.35a2.27 2.27 0 00-.346.288v-.015c0 .015-.02.025-.037.025-.05.052-.105.115-.162.153-.023.012-.048.043-.048.056.309-.266.407-.376-.087.041-2.178 1.853-.788.683-.025.048-.13.098-.228.21-.326.3-.1.077-.198.15-.285.234.043-.024.093-.07.149-.115-3.11 3.02-3.476 7.245-.716 10.436 2.887 3.28 8.584 5.225 14.163 4.712 6.115-.56 11.227-3.842 12.157-7.99.852-3.697-1.484-7.577-6.171-9.63m2.449 17.903c-5.89 2.694-13.944 2.193-19.137-1.148-5.091-3.304-6.76-8.95-3.901-13.469 2.83-4.524 9.784-7.389 16.577-6.703 6.576.638 12.053 4.353 13.57 9.04.259.8.322 1.622.335 2.44-.005 3.94-2.877 7.735-7.444 9.84" fill="#737372" />
    <path d="M8.282 17.862c-.978 0-1.916.196-2.703.539-.018-.171-.018-.35-.018-.54 0-3.518 3.648-6.382 8.164-6.382 4.503 0 8.191 2.864 8.191 6.383 0 3.53-3.688 6.377-8.19 6.377-.22 0-.473 0-.698-.027a3.59 3.59 0 00.697-2.09c0-2.35-2.434-4.26-5.443-4.26" fill="#00a0e4" />
  </g>
</svg>
