<svg viewBox="0 0 40 40" xmlns="http://www.w3.org/2000/svg">
  <defs>
    <clipPath id="Stop_svg__a">
      <path d="M0 32h32V0H0v32z" />
    </clipPath>
  </defs>
  <g clipPath="url(#Stop_svg__a)" transform="matrix(1.25 0 0 -1.25 0 40)">
    <path d="M32 16c0-8.837-7.163-16-16-16C7.164 0 0 7.163 0 16c0 8.836 7.164 16 16 16 8.837 0 16-7.164 16-16" fill="#dd203c" />
    <path d="M6.054 18.194c-.848 0-1.529-.968-1.529-2.183 0-1.22.681-2.207 1.53-2.207h19.877c.847 0 1.542.987 1.542 2.207 0 1.215-.695 2.183-1.542 2.183" fill="#fff" />
  </g>
</svg>
