<svg viewBox="0 0 40 40" xmlns="http://www.w3.org/2000/svg">
  <defs>
    <clipPath id="TextSpin0_svg__a">
      <path d="M0 32h32V0H0v32z" />
    </clipPath>
  </defs>
  <g clipPath="url(#TextSpin0_svg__a)" transform="matrix(1.25 0 0 -1.25 0 40)">
    <path d="M7.148 22.992h-.03l-1.21-4.2h2.434l-1.194 4.2zm-.806 2.883c.125.418.295.79.791.79.512 0 .698-.387.806-.79l2.993-10.496c.108-.372-.31-.776-.745-.776-.48 0-.728.404-.837.776l-.574 1.86H5.474l-.589-1.86c-.11-.372-.357-.776-.838-.776-.434 0-.852.404-.744.776l3.04 10.496zM14.117 18.259c0-.48.062-.667.45-.993l.853-.73c.185-.152.418-.371.572-.371h1.132c.22 0 .357.047.466.14l.651.543c.171.14.187.496.187.792v2.634c0 .296-.078.528-.203.62l-.68.529a.532.532 0 01-.359.123H16.15c-.203 0-.45-.11-.62-.263l-.962-.838c-.248-.201-.45-.435-.45-.883v-1.303zm0 3.69l.263.264c.497.498.791.82 1.474.82h1.643c.388 0 .728-.215 1.101-.526l.512-.434c.59-.511.805-.93.805-1.72V17.36c0-.791-.216-1.21-.805-1.721l-.512-.435c-.357-.293-.79-.526-1.164-.526h-1.533c-.606 0-1.024.372-1.443.76l-.34.324v-.092c0-.48-.156-.992-.746-.992-.635 0-.743.526-.743 1.039v9.365c0 .51.108 1.022.743 1.022.636 0 .745-.511.745-1.022V21.95zM21.371 19.28c0 .914.17 1.363.884 1.954l1.1.915c.7.573 1.055.588 1.922.588h2.358c.496 0 1.023-.109 1.023-.744 0-.65-.588-.744-1.023-.744h-2.62c-.294 0-.589-.155-.854-.372l-.898-.76c-.234-.186-.403-.34-.403-.635v-1.847c0-.293.17-.449.403-.635l.898-.76c.265-.216.56-.373.854-.373h2.62c.435 0 1.023-.092 1.023-.74 0-.639-.527-.746-1.023-.746h-2.358c-.867 0-1.223.013-1.922.59l-1.1.912c-.714.591-.884 1.04-.884 1.955v1.442z" fill="#444443" />
    <path d="M4.802 9.795a1.52 1.52 0 01-1.53-1.522c0-.846.68-1.536 1.53-1.536h22.365c.844 0 1.542.69 1.542 1.536 0 .845-.698 1.522-1.542 1.522" fill="#9e9e9e" />
  </g>
</svg>
