<svg viewBox="0 0 40 40" xmlns="http://www.w3.org/2000/svg">
  <defs>
    <clipPath id="TextSpin1_svg__a">
      <path d="M0 32h32V0H0v32z" />
    </clipPath>
  </defs>
  <g clipPath="url(#TextSpin1_svg__a)" transform="matrix(1.25 0 0 -1.25 0 40)">
    <path d="M24.842 9.91h.03l1.21 4.201h-2.433l1.193-4.2zm.807-2.883c-.125-.418-.295-.79-.791-.79-.512 0-.698.388-.807.79l-2.992 10.496c-.11.373.31.776.744.776.48 0 .728-.403.838-.776l.574-1.86h3.3l.59 1.86c.11.373.358.776.839.776.433 0 .85-.403.744-.776l-3.04-10.496zM17.873 14.645c0 .479-.061.667-.449.993l-.853.728c-.185.154-.418.372-.573.372h-1.131c-.219 0-.358-.047-.466-.14l-.652-.542c-.17-.141-.186-.496-.186-.792v-2.635c0-.295.077-.527.202-.621l.682-.527a.53.53 0 01.357-.123h1.038c.203 0 .449.108.621.262l.961.838c.248.2.449.435.449.884v1.303zm0-3.691l-.264-.263c-.496-.498-.789-.821-1.472-.821h-1.643c-.388 0-.729.216-1.102.527l-.512.434c-.589.51-.804.929-.804 1.719v2.993c0 .792.215 1.21.804 1.72l.512.436c.357.293.791.525 1.164.525h1.534c.605 0 1.023-.37 1.443-.76l.34-.323v.091c0 .48.156.992.744.992.637 0 .744-.525.744-1.038V7.82c0-.51-.107-1.022-.744-1.022-.635 0-.744.512-.744 1.022v3.133zM10.62 13.623c0-.914-.17-1.363-.884-1.954l-1.1-.915c-.7-.573-1.055-.588-1.922-.588H4.356c-.496 0-1.023.108-1.023.743 0 .651.588.745 1.023.745h2.62c.294 0 .589.155.854.371l.898.761c.234.186.403.341.403.635v1.846c0 .294-.17.449-.403.636l-.898.76c-.265.215-.56.373-.854.373h-2.62c-.435 0-1.023.091-1.023.741 0 .637.527.744 1.023.744h2.358c.867 0 1.223-.013 1.922-.589l1.1-.912c.714-.592.884-1.039.884-1.955v-1.442z" fill="#444443" />
    <path d="M27.19 23.107c.847 0 1.528.678 1.528 1.523 0 .846-.68 1.536-1.529 1.536H4.823c-.843 0-1.542-.69-1.542-1.536 0-.845.7-1.523 1.542-1.523" fill="#9e9e9e" />
  </g>
</svg>
