<svg viewBox="0 0 40 40" xmlns="http://www.w3.org/2000/svg">
  <defs>
    <clipPath id="Txt_svg__a">
      <path d="M0 32h32V0H0v32z" />
    </clipPath>
  </defs>
  <g clipPath="url(#Txt_svg__a)" transform="matrix(1.25 0 0 -1.25 0 40)">
    <path d="M26.463 27c0 .817-.308 1.555-.847 2.125a2.785 2.785 0 01-2.038.873H10.212c-.774 0-1.494-.3-2.03-.873A3.028 3.028 0 017.34 27V4.996c0-1.648 1.29-2.994 2.873-2.994H20.727v6.143h5.736V27zm1.904-19.07a2.182 2.182 0 00-.56-1.34L22.075.586A1.9 1.9 0 0020.71 0H10.212C7.557 0 5.43 2.241 5.43 4.996V27c0 1.388.54 2.642 1.403 3.547.87.892 2.053 1.453 3.379 1.453h13.366a4.688 4.688 0 003.382-1.453A5.137 5.137 0 0028.367 27V7.93z" fill="#444443" />
    <path d="M26.463 12.164H3.633v14h22.83v-14z" fill="#b4b3b3" />
    <path d="M8.475 24.082a.94.94 0 010-1.878h13.14c.518 0 .946.422.946.944a.94.94 0 01-.946.934M8.475 20.102a.94.94 0 010-1.878h13.14c.518 0 .946.423.946.943a.94.94 0 01-.946.935M8.475 16.123a.94.94 0 010-1.878h7.37c.519 0 .947.423.947.943a.942.942 0 01-.947.935" fill="#444443" />
  </g>
</svg>
