<svg viewBox="0 0 40 40" xmlns="http://www.w3.org/2000/svg">
  <defs>
    <clipPath id="Ulp_svg__a">
      <path d="M0 32h32V0H0v32z" />
    </clipPath>
  </defs>
  <g clipPath="url(#Ulp_svg__a)" transform="matrix(1.25 0 0 -1.25 0 40)">
    <path d="M26.463 27c0 .817-.308 1.555-.847 2.125a2.785 2.785 0 01-2.038.873H10.212c-.774 0-1.494-.3-2.03-.873A3.028 3.028 0 017.34 27V4.996c0-1.648 1.29-2.994 2.873-2.994H20.727v6.143h5.736V27zm1.904-19.07a2.182 2.182 0 00-.56-1.34L22.075.586A1.9 1.9 0 0020.71 0H10.212C7.557 0 5.43 2.241 5.43 4.996V27c0 1.388.54 2.642 1.403 3.547.87.892 2.053 1.453 3.379 1.453h13.366a4.688 4.688 0 003.382-1.453A5.137 5.137 0 0028.367 27V7.93z" fill="#444443" />
    <path d="M26.463 12.164H3.633v14h22.83v-14z" fill="#b4b3b3" />
    <path d="M7.68 14.666c-.582 0-1.036.14-1.443.593-.384.43-.44.849-.44 1.384v6.488c0 .372.161.581.58.581.418 0 .581-.209.581-.581v-6.488c0-.652.198-.814.721-.814h1.977c.523 0 .72.162.72.814v6.488c0 .372.163.581.582.581.42 0 .581-.209.581-.581v-6.488c0-.535-.058-.954-.442-1.384-.407-.453-.86-.593-1.44-.593H7.678zM18.014 15.829c.302 0 .58-.163.58-.582 0-.418-.278-.581-.58-.581H12.85v8.465c0 .372.163.58.582.58.418 0 .58-.208.58-.58v-7.302h4zM20.57 19.247h2.58c.687 0 .838.174.838.837v1.628c0 .662-.15.837-.838.837h-2.58v-3.302zm0-4c0-.372-.163-.58-.58-.58-.42 0-.583.208-.583.58v8.465h3.86c.534 0 .918-.082 1.338-.477.5-.465.546-.895.546-1.523V20.13c0-.592-.047-1.01-.477-1.488-.454-.51-.93-.558-1.557-.558H20.57v-2.837z" fill="#f39415" />
  </g>
</svg>
