<svg viewBox="0 0 40 40" xmlns="http://www.w3.org/2000/svg">
  <defs>
    <clipPath id="Undo_svg__a">
      <path d="M0 32h32V0H0v32z" />
    </clipPath>
  </defs>
  <g clipPath="url(#Undo_svg__a)" transform="matrix(1.25 0 0 -1.25 0 40)">
    <path d="M31.954 13.032c-2.153 5.368-8.415 7.693-14.076 5.462-2.388-.939-4.332-2.608-5.564-4.675l3.925-1.605c.9-.36.876-1.627-.067-1.997l-5.44-2.17-5.116-2.02a1.167 1.167 0 00-.795-.007c-.289.097-.549.282-.676.575l-.06.153-.559 1.388-3.454 8.528c-.347.87.627 1.798 1.53 1.446l3.981-1.653a19.22 19.22 0 001.905 2.85 18.653 18.653 0 003.272 3.183 19.046 19.046 0 004.506 2.512c9.44 3.718 13.148-3.017 16.734-11.95l-.046-.02z" fill="#444443" />
  </g>
</svg>
