<?xml version="1.0" encoding="UTF-8" standalone="no"?>
<svg
   xmlns:dc="http://purl.org/dc/elements/1.1/"
   xmlns:cc="http://creativecommons.org/ns#"
   xmlns:rdf="http://www.w3.org/1999/02/22-rdf-syntax-ns#"
   xmlns:svg="http://www.w3.org/2000/svg"
   xmlns="http://www.w3.org/2000/svg"
   id="svg8"
   version="1.1"
   viewBox="0 0 33.866666 33.866668"
   height="128"
   width="128">
  <defs
     id="defs2" />
  <metadata
     id="metadata5">
    <rdf:RDF>
      <cc:Work
         rdf:about="">
        <dc:format>image/svg+xml</dc:format>
        <dc:type
           rdf:resource="http://purl.org/dc/dcmitype/StillImage" />
        <dc:title></dc:title>
      </cc:Work>
    </rdf:RDF>
  </metadata>
  <g
     transform="translate(-131.17623,-48.375703)"
     id="layer1">
    <g
       transform="matrix(0.79483659,0,0,0.79483659,28.989827,13.44351)"
       id="g911">
      <path
         id="path904"
         style="fill:#ffffff;fill-opacity:1;stroke:none;stroke-width:0.264583"
         d="m 148.01629,48.515902 c -4.02605,0.04727 -8.01517,1.138097 -11.13162,3.78633 -4.20642,3.498765 -6.2015,9.191554 -5.60483,14.574306 0.52756,5.887317 5.34639,10.333829 9.88785,13.634365 1.27748,0.928415 2.94156,1.250414 4.50662,1.461354 2.97945,0.401572 6.02577,-0.04524 9.00979,-0.411345 0.79578,-0.09763 2.35799,-0.47439 2.35799,-0.47439 5.66982,-2.289558 8.99848,-8.322667 9.52604,-14.209984 0.59667,-5.382752 -1.39841,-11.075541 -5.60483,-14.574306 -3.35045,-2.847078 -7.70984,-3.892658 -12.03906,-3.778062 -0.30253,-0.008 -0.60548,-0.01183 -0.90795,-0.0083 z m -2.34198,33.456355 c -0.052,0.02106 -0.0997,0.04197 -0.15244,0.06305 0.40331,0 0.40273,-0.02127 0.15244,-0.06305 z" />
      <path
         id="path855"
         style="fill:#918580;fill-opacity:1;stroke:none;stroke-width:0.264583"
         d="m 161.13238,79.389494 c -3.0988,-1.46632 -5.89058,1.61845 -8.72718,-0.63342 -2.76638,-2.1963 -2.49322,-6.93544 0.78968,-8.57964 1.18734,-0.59465 2.72692,-0.27792 3.96875,-0.0474 l 1.32291,-2.11667 c -1.49251,-0.41939 -2.94161,-0.630154 -4.49791,-0.50445 -5.65127,0.45638 -8.04164,7.52702 -4.85826,11.87757 1.83703,2.51063 5.40668,3.19669 8.29784,2.40427 1.45362,-0.39847 2.68049,-1.32398 3.70417,-2.4003 m -1.05834,2.38125 c 2.10291,0.26564 4.37727,0.57785 6.34894,-0.44556 2.25531,-1.17078 2.92577,-4.55851 1.02421,-6.37408 -1.25307,-1.19639 -6.8371,-1.33091 -6.35926,-3.75981 0.56594,-2.87686 3.68987,-0.60237 5.071,-0.52998 0.67654,0.0354 1.30069,-0.47144 1.85261,-0.79682 -1.06997,-3.722324 -8.31744,-3.068674 -9.59326,0.26458 -1.33694,3.49279 1.8968,4.84135 4.56618,5.59726 1.01388,0.28707 2.96889,0.92075 2.69028,2.33627 -0.3294,1.67481 -4.39473,2.21377 -5.6007,3.70814 z" />
      <path
         id="path847"
         style="fill:#cb3f44;fill-opacity:1;stroke:none;stroke-width:0.264583"
         d="m 145.52195,82.035324 c -0.024,-2.13572 -0.93152,-5.65309 -2.67055,-7.02892 -1.43671,-1.13691 -4.28648,-0.60801 -4.20862,1.47267 -2.7355,-1.94866 -1.56191,-3.09766 -0.0447,-5.31535 2.09817,-3.06686 5.42994,-4.085824 9.04055,-3.4159 0.78409,-2.881954 -2.83959,-4.657884 -2.40515,-7.672924 0.63643,-4.41661 6.78484,-7.56699 9.21215,-11.01284 -8.13665,-1.860844 -16.88414,-0.15858 -21.27619,7.83784 -5.20507,9.47661 0.19861,24.876377 12.35243,25.135407 m 9.52509,-32.279157 -4.49792,6.35 6.08542,-5.29166 -1.5875,-1.05834 m 1.05833,3.96875 2.38125,-2.11666 -2.38125,2.11666" />
    </g>
  </g>
</svg>
